<svg xmlns="http://www.w3.org/2000/svg" width="75.92" height="47" viewBox="0 0 75.92 47">
  <g id="Layer_1" data-name="Layer 1" transform="translate(0.495 0.5)">
    <g id="Group_49" data-name="Group 49" transform="translate(0 0)">
      <path id="Path_188" data-name="Path 188" d="M30.906,41.153l.089-.074v.089h-.089ZM24.577,39.8a.657.657,0,0,0,.118-.074.408.408,0,0,1-.015.133c-.03-.03-.074-.044-.1-.074Zm18.38-3.1a.874.874,0,0,0,.089.059c-.03,0-.044.03-.074.044a.251.251,0,0,0-.015-.1Zm-23.071-.044s.074-.044.1-.059a.325.325,0,0,1-.015.118C19.945,36.7,19.916,36.668,19.886,36.654Zm9.338-1.446s.03.03.03.044h-.059A.212.212,0,0,1,29.224,35.208Zm-14.058-2.08a.147.147,0,0,0,.059-.015.112.112,0,0,1-.015.059s-.03-.03-.044-.03Zm33.412-.03a.212.212,0,0,1,.044.03s-.03.015-.03.029v-.044ZM25.168,30.871s.074.059.1.089c-.044.015-.1.044-.148.059C25.138,30.974,25.153,30.915,25.168,30.871Zm-5.65-2.523a2.633,2.633,0,0,0,.03-.339,1.384,1.384,0,0,0,.221.089ZM12.85,27.286l.162.03-.148.148a.553.553,0,0,0-.015-.162ZM58,23.436ZM22.7,8.876a1.768,1.768,0,0,0-.251-.339c.207-.044.4-.089.6-.133-.03.044-.207.457-.28.6-.015-.044-.044-.089-.059-.133ZM16.435,6.59a.181.181,0,0,1,.03.074H16.39Z" transform="translate(4.649 1.72)" fill="#fc2433" stroke="#fc2433" stroke-width="1"/>
      <path id="Path_189" data-name="Path 189" d="M63.927,1.014a1.5,1.5,0,0,0-.62.207c-2.479,1.24-4.944,2.479-7.423,3.734-.812.413-1.609.826-2.406,1.254-.62.325-.679.531-.384,1.136a9.136,9.136,0,0,0,.443.841c.221.325.192.517-.207.679-.708.28-1.417.59-2.1.915a1.863,1.863,0,0,1-.812.192,1.882,1.882,0,0,1-.782-.177c-.266-.118-.531-.207-.782-.339A24.52,24.52,0,0,0,39.3,6.548c-.753-.059-1.52-.1-2.273-.1a16.679,16.679,0,0,0-5.564.871,4.665,4.665,0,0,0-2.583,1.933.713.713,0,0,1-.443.354c-.354.089-.723.177-1.077.236a4.654,4.654,0,0,1-.782.059h-.044a3.5,3.5,0,0,1-.959-.133c-.3-.089-1.446-.649-1.741-.782-.207-.1-.472-.236-.472-.517a.958.958,0,0,1,.118-.4c.089-.207.207-.413.31-.605.413-.782.384-.93-.4-1.328C20.17,4.5,16.968,2.874,13.751,1.25a1.643,1.643,0,0,0-.694-.236c-.266,0-.428.207-.679.679-1.505,2.893-3.011,5.8-4.5,8.692Q4.534,16.872,1.192,23.343c-.325.635-.266.826.4,1.166,1.889.959,3.763,1.919,5.637,2.878,1.4.723,2.8,1.461,4.206,2.184a1.055,1.055,0,0,0,.487.148c.236,0,.413-.162.59-.5.236-.457.457-.915.679-1.387.089-.192.177-.3.3-.3a.553.553,0,0,1,.3.133c1,.767,2.007,1.52,3.025,2.273.28.207.3.354.089.635a3.807,3.807,0,0,0,2.435,6.139.861.861,0,0,1,.812.812,3.806,3.806,0,0,0,3.748,3.025,2.161,2.161,0,0,0,.428-.03h.148c.31,0,.457.133.576.472a3.848,3.848,0,0,0,3.424,2.642,1.882,1.882,0,0,0,.3-.015h.221c.457,0,.664.207.841.694a3.649,3.649,0,0,0,3.424,2.376,3.8,3.8,0,0,0,1.136-.177,3.4,3.4,0,0,0,1.417-.93.706.706,0,0,1,.517-.28.793.793,0,0,1,.487.221c.31.251.664.472,1,.708a3.837,3.837,0,0,0,2.169.738,3.748,3.748,0,0,0,2.317-.871,10.644,10.644,0,0,0,1.594-1.564.707.707,0,0,1,.59-.3h.487A4.176,4.176,0,0,0,49.2,41.067c.074-.236.148-.339.325-.339a.537.537,0,0,1,.236.044,3.768,3.768,0,0,0,1.063.148,4.137,4.137,0,0,0,4.058-3.38c.074-.4.177-.561.457-.561a.69.69,0,0,1,.236.03h.266v.03a7.456,7.456,0,0,0,1-.1,4.266,4.266,0,0,0,2.966-6.154c-.118-.221-.251-.428.044-.635,1.136-.812,2.273-1.638,3.409-2.465a.4.4,0,0,1,.236-.1q.155,0,.266.221c.221.472.428.93.664,1.387.192.369.354.531.605.531a1.156,1.156,0,0,0,.5-.148c.517-.251,1-.531,1.505-.8q4.206-2.169,8.412-4.354c.487-.251.59-.531.339-1.048-.148-.3-.325-.59-.472-.9Q69.941,12.046,64.577,1.6c-.221-.443-.384-.635-.635-.635h0ZM65.9,26.84c-.148,0-.266-.118-.369-.339-1.033-2.037-2.1-4.073-3.158-6.095q-3.143-6.021-6.272-12.028a3.524,3.524,0,0,0-.177-.325c-.207-.325-.162-.531.207-.708q3.3-1.66,6.582-3.38a.66.66,0,0,1,.3-.089c.177,0,.266.148.384.369Q66.96,11.175,70.539,18.1c.767,1.476,1.52,2.966,2.287,4.457.074.148.133.3.192.413.015.31-.236.354-.413.443l-4.959,2.568c-.472.251-.944.487-1.4.753a.684.684,0,0,1-.31.118h0ZM11.08,26.8a1,1,0,0,1-.384-.118c-2.14-1.122-4.295-2.214-6.449-3.306-.339-.177-.369-.354-.192-.664q3.5-6.73,6.98-13.474c.841-1.638,1.7-3.276,2.524-4.929.118-.251.236-.384.413-.384a.725.725,0,0,1,.339.1c2.2,1.122,4.413,2.214,6.611,3.321.133.074.325.1.3.339-.059.1-.118.236-.177.369q-4.759,9.165-9.519,18.329c-.133.266-.251.413-.443.413h0Zm16.455-7.954a.72.72,0,0,1-.635-.531,1.756,1.756,0,0,1,.3-1.609c.944-1.609,2.007-3.158,2.789-4.841.93-2.037,2.568-2.686,4.56-2.966A19.221,19.221,0,0,1,37.289,8.7,22.53,22.53,0,0,1,46.38,10.74c.856.384,1.712.8,2.568,1.181a3.662,3.662,0,0,0,1.535.339,3.781,3.781,0,0,0,1.7-.413c.708-.339,1.417-.649,2.11-1.018a.681.681,0,0,1,.339-.1c.162,0,.266.1.4.354,2.184,4.235,4.4,8.471,6.6,12.706.221.428.443.856.679,1.269a.447.447,0,0,1-.133.679c-1.254.915-2.494,1.83-3.719,2.76a.583.583,0,0,1-.325.133.738.738,0,0,1-.457-.221c-3.689-3.025-7.379-6.065-11.068-9.076-1.756-1.432-3.527-2.863-5.283-4.309a3.89,3.89,0,0,0-2.553-.93H34.412a3.287,3.287,0,0,0-2.287.9c-1.21,1.122-2.435,2.228-3.66,3.335-.133.118-.266.251-.4.354a.826.826,0,0,1-.5.192h0Zm-8.692,9.681H18.8c-.339-.044-.649-.4-.959-.62-.974-.708-1.933-1.432-2.922-2.125-.339-.236-.369-.443-.177-.8q3.653-6.951,7.276-13.917c.1-.192.192-.28.339-.28a.665.665,0,0,1,.251.074c.62.3,1.254.576,1.889.856a4.852,4.852,0,0,0,1.919.487h.4c.31,0,.384.118.162.487-.664,1.092-1.328,2.184-1.963,3.291a3.448,3.448,0,0,0,.472,4.221,2.978,2.978,0,0,0,2.081.871,2.924,2.924,0,0,0,2.022-.738C30.84,19.2,32.08,18.074,33.3,16.908a1.874,1.874,0,0,1,1.358-.576h.059c.59.015,1.181.03,1.771.03.708,0,1.4,0,2.11-.03h.044a1.905,1.905,0,0,1,1.269.443q5.269,4.317,10.552,8.619,3.276,2.679,6.523,5.387a2.183,2.183,0,0,1,.93,2.553,2.1,2.1,0,0,1-3.394.871c-2.037-1.83-4.176-3.527-6.272-5.283a1.267,1.267,0,0,0-.8-.325,1.117,1.117,0,0,0-.871.472,1.1,1.1,0,0,0,.28,1.623c1.638,1.387,3.291,2.76,4.929,4.147.708.59,1.284,1.225.974,2.273a2.076,2.076,0,0,1-3.439.959c-1.387-1.24-2.8-2.45-4.221-3.66a1.356,1.356,0,0,0-.871-.369,1.139,1.139,0,0,0-.856.457,1.115,1.115,0,0,0,.251,1.668c.915.782,1.845,1.55,2.76,2.332a1.741,1.741,0,0,1,.679,2.066,2.122,2.122,0,0,1-1.948,1.4h-.074a1.584,1.584,0,0,1-1.063-.369c-.635-.546-1.269-1.077-1.9-1.623a1.331,1.331,0,0,0-.812-.369,1.191,1.191,0,0,0-.723,2.051c.413.384.841.767,1.284,1.122.236.192.266.354.03.561-.3.28-.576.576-.885.841a1.6,1.6,0,0,1-1.048.443,1.773,1.773,0,0,1-.856-.251l-.133-.089c-.28-.192-.664-.339-.8-.605-.148-.3.28-.5.443-.767a3.825,3.825,0,0,0-2.1-5.682c-.428-.148-.59-.31-.576-.8A3.944,3.944,0,0,0,32.272,32.6a.638.638,0,0,1-.679-.62,3.907,3.907,0,0,0-3.778-3.1,3.584,3.584,0,0,0-1.579.369.707.707,0,0,1-.31.133c-.089,0-.177-.059-.266-.236a3.709,3.709,0,0,0-3.321-2.376,4.253,4.253,0,0,0-2.656,1.063c-.28.236-.5.694-.841.694h0ZM19.9,34.5a1.731,1.731,0,0,1-.443-.074,1.514,1.514,0,0,1-1.092-1.181c-.015-.1-.015-.207-.03-.325a1.179,1.179,0,0,1,.354-.915c.812-.812,1.623-1.638,2.45-2.435a1.529,1.529,0,0,1,1.063-.457,1.481,1.481,0,0,1,1.063.487,1.438,1.438,0,0,1-.089,2.125c-.8.782-1.638,1.52-2.406,2.332a1.2,1.2,0,0,1-.885.443h0Zm4.132,3.748a1.681,1.681,0,0,1-1.653-.974,1.542,1.542,0,0,1,.384-1.845c1.3-1.254,2.583-2.538,3.881-3.778a1.7,1.7,0,0,1,1.151-.487,1.566,1.566,0,0,1,1.166.531,1.627,1.627,0,0,1-.059,2.332C27.653,35.3,26.369,36.551,25.1,37.82a1.429,1.429,0,0,1-.989.428h-.074Zm4.678,3.158a1.588,1.588,0,0,1-1.166-.5,1.546,1.546,0,0,1,.044-2.273c1.092-1.092,2.214-2.155,3.321-3.217a1.4,1.4,0,0,1,.959-.457h.118a1.614,1.614,0,0,1,1.181,2.789c-1.092,1.063-2.184,2.125-3.291,3.173a1.682,1.682,0,0,1-1.166.487h0Zm4.545,2.952a1.574,1.574,0,0,1-1.122-.5,1.434,1.434,0,0,1,0-1.874c.812-.708,1.579-1.461,2.346-2.228a1.165,1.165,0,0,1,.841-.384,1.6,1.6,0,0,1,.708.192,1.508,1.508,0,0,1,.841,1.55,1.212,1.212,0,0,1-.443.841c-.782.694-1.55,1.4-2.332,2.1a1.262,1.262,0,0,1-.841.31h0Z" transform="translate(-1 -0.97)" fill="#fc2433" stroke="#fc2433" stroke-width="1"/>
    </g>
  </g>
</svg>
