<svg id="OBJECTS" xmlns="http://www.w3.org/2000/svg" width="163.287" height="263.49" viewBox="0 0 163.287 263.49">
  <path id="Path_190" data-name="Path 190" d="M169.62,46.505A56.772,56.772,0,0,0,157.07,24.7q-9-9.956-24.549-16.452t-39.512-6.5A154.557,154.557,0,0,0,54.044,6.9Q34.178,12.078,19.569,21.636L32.253,56.458l-6.8,5.507,9.859,2.9a144.716,144.716,0,0,1,26.6-11.1A91.97,91.97,0,0,1,87.388,50.33q13.5,0,20.415,6.5a20.75,20.75,0,0,1,6.927,15.692,30.117,30.117,0,0,1-7.11,19.7q-7.133,8.612-15.745,17.409-5.982,6.11-11.611,12.615a90.579,90.579,0,0,0-9.926,13.973,75.964,75.964,0,0,0-6.926,16.065A65.951,65.951,0,0,0,60.79,171.6c0,2.3.049,5.043.183,8.232.022.589.053,1.161.088,1.727h-9.32l10.171,6.878h49.453a32.8,32.8,0,0,1-.379-5.354V178.49a33.228,33.228,0,0,1,2.621-12.814,66.141,66.141,0,0,1,6.562-12.055,89.028,89.028,0,0,1,8.8-10.9q4.866-5.175,9.366-9.764,5.982-6.11,12.354-13a102.173,102.173,0,0,0,11.244-14.533,81.655,81.655,0,0,0,8.049-16.649,58.611,58.611,0,0,0,3.2-19.7,78.7,78.7,0,0,0-3.562-22.566Z" transform="translate(-9.895 -0.883)" fill="#fc2433" opacity="0.5"/>
  <path id="Path_191" data-name="Path 191" d="M67.023,47.015a92.672,92.672,0,0,0-25.177,3.326A144.771,144.771,0,0,0,15.56,61.08L0,19.248Q14.444,9.992,34.072,4.99A155.836,155.836,0,0,1,72.579,0q23.682,0,39.05,6.291t24.262,15.92a54.649,54.649,0,0,1,12.4,21.1,74.8,74.8,0,0,1,3.519,21.839,55.738,55.738,0,0,1-3.157,19.067,78.39,78.39,0,0,1-7.955,16.114A99.3,99.3,0,0,1,129.587,114.4q-6.29,6.672-12.209,12.582-4.448,4.448-9.256,9.45a86.591,86.591,0,0,0-8.7,10.546,63.785,63.785,0,0,0-6.485,11.666,31.579,31.579,0,0,0-2.591,12.4v4.448a31.229,31.229,0,0,0,.373,5.183H41.844a51.877,51.877,0,0,1-.929-8.328c-.132-3.085-.181-5.737-.181-7.967a62.6,62.6,0,0,1,2.591-18.694,72.767,72.767,0,0,1,6.845-15.547,87.788,87.788,0,0,1,9.81-13.523q5.551-6.29,11.474-12.209,8.514-8.514,15.56-16.849A28.777,28.777,0,0,0,94.04,68.489,19.887,19.887,0,0,0,87.2,53.3q-6.852-6.29-20.175-6.291Z" fill="#fc2433"/>
  <path id="Path_192" data-name="Path 192" d="M154.329,448.248q0,13.374-8.66,20.649a29.972,29.972,0,0,1-39.172,0q-8.645-7.28-8.649-20.649T106.5,427.6a30.093,30.093,0,0,1,32.435-3.906,27.806,27.806,0,0,1,15.4,24.555Z" transform="translate(-49.477 -212.692)" fill="#fc2433" opacity="0.5"/>
  <path id="Path_193" data-name="Path 193" d="M134.76,447.921q0,13.374-8.66,20.649a29.972,29.972,0,0,1-39.172,0q-8.645-7.28-8.649-20.649t8.649-20.649a29.972,29.972,0,0,1,39.172,0Q134.758,434.567,134.76,447.921Z" transform="translate(-39.582 -212.365)" fill="#fc2433"/>
</svg>
