<svg xmlns="http://www.w3.org/2000/svg" width="59.02" height="59.049" viewBox="0 0 59.02 59.049">
  <g id="Layer_1" data-name="Layer 1" transform="translate(0.594 0.549)">
    <g id="Group_48" data-name="Group 48" transform="translate(0 0)">
      <path id="Path_177" data-name="Path 177" d="M56.538.12A49.589,49.589,0,0,0,36.29,6.232a50.732,50.732,0,0,0-11.058,8.456l-8.693.054a8.689,8.689,0,0,0-7.257,3.985L3.137,28.274A3.118,3.118,0,0,0,5.61,33.079l6.944.335-2.1,3.11a3.009,3.009,0,0,0,.367,3.8l6.825,6.825a3.02,3.02,0,0,0,3.8.367l3.11-2.1.335,6.944a3.089,3.089,0,0,0,1.685,2.624,3.175,3.175,0,0,0,1.436.356,3.131,3.131,0,0,0,1.685-.5l9.546-6.145a8.638,8.638,0,0,0,3.985-7.257l.054-8.845a50.3,50.3,0,0,0,8.38-10.983A49.429,49.429,0,0,0,57.78,1.372L57.9-.01,56.517.109Zm-1.2,2.473a49.02,49.02,0,0,1-1.847,8.942,13.15,13.15,0,0,1-5.939-4.763A10.592,10.592,0,0,1,46.376,4.45,49.072,49.072,0,0,1,55.339,2.593ZM5.729,30.736a.783.783,0,0,1-.616-1.2l6.145-9.547a6.335,6.335,0,0,1,5.292-2.916l6.415-.032a53.422,53.422,0,0,0-6.6,9.244c-.464.821-.918,1.663-1.328,2.484-.518,1.026-.886,1.836-1.112,2.365L5.74,30.747Zm6.685,7.1,2.451-3.65,8.952,8.953-3.65,2.451a.671.671,0,0,1-.842-.086L12.5,38.673a.67.67,0,0,1-.086-.842ZM52.737,13.759a44.479,44.479,0,0,1-3.067,6.674A48.952,48.952,0,0,1,39.4,33.069a53.729,53.729,0,0,1-13.542,8.78l-9.784-9.784c.194-.454.518-1.166.961-2.041a54.286,54.286,0,0,1,7.818-11.5c.594-.67,1.22-1.339,1.847-1.976l1.382-1.35A47.6,47.6,0,0,1,37.5,8.252,45.925,45.925,0,0,1,44.162,5.2a13.262,13.262,0,0,0,1.382,2.775,15.684,15.684,0,0,0,7.214,5.788ZM40.955,35.034l-.032,6.415a6.3,6.3,0,0,1-2.916,5.292l-9.546,6.145a.763.763,0,0,1-.778.032.772.772,0,0,1-.421-.648l-.389-8.2a52.3,52.3,0,0,0,4.849-2.441,54.631,54.631,0,0,0,9.244-6.6Z" transform="translate(-0.023 0.01)" fill="#fc2433" stroke="#fc2433" stroke-width="1"/>
      <path id="Path_178" data-name="Path 178" d="M11.483,42.348a1.091,1.091,0,0,0-1.53,0L.318,51.983a1.091,1.091,0,0,0,0,1.53,1.079,1.079,0,0,0,1.53,0l9.635-9.635a1.091,1.091,0,0,0,0-1.53Z" transform="translate(-0.005 4.169)" fill="#fc2433" stroke="#fc2433" stroke-width="1"/>
      <path id="Path_179" data-name="Path 179" d="M1.6,45.849a1.067,1.067,0,0,0,.765-.318l5.4-5.4a1.091,1.091,0,0,0,0-1.53,1.079,1.079,0,0,0-1.53,0L.838,44a1.091,1.091,0,0,0,0,1.53A1.067,1.067,0,0,0,1.6,45.849Z" transform="translate(-0.008 4.194)" fill="#fc2433" stroke="#fc2433" stroke-width="1"/>
      <path id="Path_180" data-name="Path 180" d="M14.487,45.77a1.067,1.067,0,0,0-.765.318l-5.4,5.4a1.091,1.091,0,0,0,0,1.53,1.079,1.079,0,0,0,1.53,0l5.4-5.4a1.091,1.091,0,0,0,0-1.53,1.067,1.067,0,0,0-.765-.318Z" transform="translate(-0.058 4.144)" fill="#fc2433" stroke="#fc2433" stroke-width="1"/>
      <path id="Path_181" data-name="Path 181" d="M30.609,15.389a5.545,5.545,0,1,0,7.847,0,5.54,5.54,0,0,0-7.838,0ZM36.917,21.7a3.375,3.375,0,0,1-2.394.993,3.334,3.334,0,0,1-2.394-.993,3.375,3.375,0,0,1-.993-2.394,3.334,3.334,0,0,1,.993-2.394,3.375,3.375,0,0,1,2.394-.993,3.334,3.334,0,0,1,2.394.993A3.375,3.375,0,0,1,37.91,19.3,3.334,3.334,0,0,1,36.917,21.7Z" transform="translate(2.813 1.348)" fill="#fc2433" stroke="#fc2433" stroke-width="1"/>
    </g>
  </g>
</svg>
