<?xml version="1.0" encoding="UTF-8"?>
<svg id="Layer_2" data-name="Layer 2" xmlns="http://www.w3.org/2000/svg" viewBox="0 0 180 44.49">
  <defs>
    <style>
      .cls-1 {
        fill: #fff;
      }
    </style>
  </defs>
  <g id="Layer_1-2" data-name="Layer 1">
    <g id="Layer_1-15" data-name="Layer 1-15">
      <g id="Group_128" data-name="Group 128">
        <g id="Group_126" data-name="Group 126">
          <path id="Path_334" data-name="Path 334" class="cls-1" d="M1.48.35c1.73-.03,3.7-.11,5.25-.11,9.86,0,13.84,5.67,13.84,12.11,0,7.01-4.72,12.71-14.12,12.71-1.34,0-3.06-.03-4.96-.07C.67,24.99,0,24.34,0,23.52V1.83C0,1.02.64.36,1.45.35c0,0,.02,0,.03,0ZM2.99,22.18c1.62.03,3.13.07,3.56.07,7.04,0,10.84-4.16,10.84-9.9,0-5.35-3.59-9.3-10.74-9.3-1.48,0-2.43.07-3.67.11v19.01h0Z"/>
          <path id="Path_335" data-name="Path 335" class="cls-1" d="M27.19.18c.63,0,1.02.32,1.48,1.09l6.34,10.35,6.37-10.35c.27-.63.87-1.05,1.55-1.09.68-.06,1.28.45,1.33,1.14,0,.04,0,.09,0,.13-.01.29-.1.57-.25.81l-7.64,12.18v9.33c0,.81-.66,1.47-1.48,1.48-.82,0-1.49-.66-1.51-1.48v-9.33l-7.47-11.97c-.16-.25-.25-.54-.25-.84,0-.8.65-1.45,1.45-1.45.02,0,.04,0,.06,0h0Z"/>
          <path id="Path_336" data-name="Path 336" class="cls-1" d="M70.25,1.55c.02-.78.67-1.39,1.45-1.37.75.02,1.35.62,1.37,1.37v22.18c0,.88-.49,1.51-1.27,1.51s-1.2-.35-1.8-1.09l-14.72-18.55v18.28c-.02.78-.67,1.39-1.45,1.37-.75-.02-1.35-.62-1.37-1.37V1.83c0-.84.42-1.65,1.37-1.65.74,0,1.2.35,1.9,1.27l14.51,18.34V1.55h0Z"/>
          <path id="Path_337" data-name="Path 337" class="cls-1" d="M97.89,17.53h-11.23l-2.82,6.73c-.22.74-1,1.16-1.74.94-.59-.18-1-.71-1-1.33.01-.22.06-.43.14-.63L90.67,1.37c.27-.72.96-1.2,1.73-1.19.76,0,1.44.48,1.69,1.2l9.4,21.77c.07.19.11.39.11.6.04.8-.58,1.47-1.37,1.51-.02,0-.05,0-.07,0-.63,0-1.19-.4-1.41-.99l-2.86-6.73h0ZM92.29,4.19l-4.44,10.53h8.88l-4.44-10.53h0Z"/>
          <path id="Path_338" data-name="Path 338" class="cls-1" d="M125.25,15.46c-.34.56-.93.92-1.58.95-.65-.04-1.24-.4-1.58-.95l-7.47-10.21v18.52c0,.81-.66,1.47-1.48,1.48-.82,0-1.49-.66-1.51-1.48V2.08c-.09-.95.61-1.8,1.56-1.89.06,0,.11,0,.17,0,.8.01,1.53.44,1.94,1.13l8.63,11.69,8.27-11.8c.36-.61,1.01-1,1.73-1.02.91-.04,1.69.67,1.72,1.58,0,.04,0,.07,0,.11v21.9c0,.81-.66,1.47-1.48,1.48-.82,0-1.49-.66-1.51-1.48V5.04l-7.39,10.42h-.01Z"/>
          <path id="Path_339" data-name="Path 339" class="cls-1" d="M148.77.17c.8,0,1.46.64,1.48,1.44v22.15c0,.81-.66,1.47-1.48,1.48-.82,0-1.49-.66-1.51-1.48V1.62c.03-.81.7-1.46,1.51-1.44Z"/>
          <path id="Path_340" data-name="Path 340" class="cls-1" d="M177.26,3.94c-1.55-.79-3.27-1.18-5-1.13-5.35,0-9.16,4.01-9.16,9.86s3.91,9.86,9.61,9.86c1.8.03,3.56-.45,5.11-1.37.26-.16.57-.25.88-.25.41,0,.8.17,1.06.49.16.2.25.45.25.71-.03.48-.27.92-.67,1.2-2.04,1.36-4.45,2.07-6.9,2.04-7.39,0-12.51-5-12.51-12.68,0-7.08,4.58-12.67,12.29-12.67,2.27-.03,4.5.54,6.48,1.65.44.24.72.7.74,1.2,0,.24-.08.47-.22.67-.23.41-.66.65-1.13.63-.29,0-.58-.08-.84-.22h0Z"/>
        </g>
        <g id="Group_127" data-name="Group 127">
          <path id="Path_341" data-name="Path 341" class="cls-1" d="M7.11,44.45c-.27,0-.51-.15-.66-.37l-3.1-4.05h-1.76v3.77c0,.36-.29.65-.65.65h0c-.36,0-.65-.29-.66-.65v-9.6c0-.36.29-.65.65-.65h0c.82-.02,2.02-.03,2.25-.03,2.94,0,3.84,1.46,3.84,3.2.04,1.44-.94,2.72-2.34,3.05l2.86,3.62c.1.13.16.28.17.45.01.32-.24.59-.56.6-.01,0-.02,0-.04,0ZM1.6,38.79h1.59c1.23.12,2.33-.78,2.45-2.01,0-.01,0-.02,0-.04,0-1.11-.62-1.99-2.53-1.99-.34,0-1,.02-1.51.03v4.01h0Z"/>
          <path id="Path_342" data-name="Path 342" class="cls-1" d="M27.9,43.11c.34.01.6.3.59.64-.01.32-.27.58-.59.59h-4.99c-.36,0-.65-.29-.65-.65h0v-9.49c0-.36.29-.65.65-.65h4.83c.34.01.6.3.59.64-.01.32-.27.58-.59.59h-4.17v3.48h3.71c.34.01.6.3.59.64-.01.32-.27.58-.59.59h-3.71v3.6h4.33,0Z"/>
          <path id="Path_343" data-name="Path 343" class="cls-1" d="M42.72,43.26c-.12-.11-.19-.27-.18-.43,0-.14.05-.28.14-.39.12-.15.29-.23.48-.23.13,0,.25.04.35.11.61.55,1.39.88,2.22.94,1.12,0,2.11-.59,2.11-1.68,0-2.63-5.27-1.79-5.27-5.36,0-1.56,1.2-2.82,3.25-2.82.89,0,1.77.24,2.53.72.16.11.25.3.25.49,0,.12-.04.23-.11.32-.11.17-.3.28-.51.29-.12,0-.25-.04-.35-.11-.51-.33-1.11-.5-1.73-.49-1.2,0-1.94.63-1.94,1.59,0,2.67,5.27,1.66,5.27,5.34,0,1.77-1.56,2.93-3.51,2.93-1.11-.03-2.18-.47-2.99-1.23h0Z"/>
          <path id="Path_344" data-name="Path 344" class="cls-1" d="M64.84,33.48c.35,0,.64.28.65.63v9.69c0,.36-.29.65-.65.65h0c-.36,0-.65-.29-.66-.65v-9.69c0-.36.3-.64.66-.63,0,0,0,0,0,0Z"/>
          <path id="Path_345" data-name="Path 345" class="cls-1" d="M81.99,33.56c.75-.02,1.62-.05,2.29-.05,4.31,0,6.05,2.48,6.05,5.3,0,3.06-2.06,5.56-6.17,5.56-.59,0-1.34-.02-2.17-.03-.36,0-.65-.29-.65-.65h0v-9.49c0-.36.29-.65.65-.65h0ZM82.66,43.11c.71.02,1.37.03,1.56.03,3.08,0,4.74-1.82,4.74-4.33,0-2.34-1.57-4.06-4.7-4.06-.65,0-1.06.03-1.6.05v8.32h0Z"/>
          <path id="Path_346" data-name="Path 346" class="cls-1" d="M110.69,43.11c.34.01.6.3.59.64-.01.32-.27.58-.59.59h-4.99c-.36,0-.65-.29-.65-.65h0v-9.49c0-.36.29-.65.65-.65h4.83c.34.01.6.3.59.64-.01.32-.27.58-.59.59h-4.17v3.48h3.72c.34.01.6.3.59.64-.01.32-.27.58-.59.59h-3.71v3.6h4.33,0Z"/>
          <path id="Path_347" data-name="Path 347" class="cls-1" d="M134.01,34.08c.01-.34.3-.6.64-.59.32.01.58.27.59.59v9.7c0,.39-.22.66-.56.66s-.52-.15-.78-.48l-6.44-8.12v7.99c-.01.34-.3.6-.64.59-.32-.01-.58-.27-.59-.59v-9.64c0-.37.18-.72.6-.72.32,0,.52.15.83.56l6.34,8.02v-7.98Z"/>
          <path id="Path_348" data-name="Path 348" class="cls-1" d="M157.52,35.13c-.68-.35-1.43-.52-2.19-.49-2.2-.02-4,1.76-4.02,3.96,0,.12,0,.24.01.35-.14,2.23,1.55,4.16,3.79,4.31.14,0,.28.01.42,0,.79.01,1.56-.2,2.23-.6.12-.07.25-.11.38-.11.18,0,.35.08.46.22.07.09.11.2.11.31-.01.21-.12.4-.29.52-.89.6-1.95.91-3.02.89-3.06-.03-5.52-2.54-5.49-5.6.03-2.99,2.42-5.41,5.4-5.49.99-.02,1.97.23,2.83.72.19.11.32.3.32.52,0,.1-.03.2-.09.29-.1.18-.29.28-.49.28-.13,0-.25-.03-.37-.09h0Z"/>
          <path id="Path_349" data-name="Path 349" class="cls-1" d="M172.25,33.48c.28,0,.45.14.65.48l2.77,4.53,2.79-4.53c.12-.28.38-.46.68-.48.3-.03.56.19.58.49,0,.02,0,.04,0,.06,0,.13-.04.25-.11.35l-3.34,5.33v4.08c0,.36-.29.65-.65.65-.36,0-.65-.29-.66-.65v-4.08l-3.27-5.24c-.07-.11-.11-.24-.11-.37,0-.35.28-.63.63-.63.01,0,.02,0,.03,0Z"/>
        </g>
      </g>
    </g>
  </g>
</svg>