<svg xmlns="http://www.w3.org/2000/svg" width="279.561" height="34.62" viewBox="0 0 279.561 34.62">
  <g id="Group_4" data-name="Group 4" transform="translate(-32.139 -34.15)">
    <g id="Group_1" data-name="Group 1">
      <path id="Path_1" data-name="Path 1" d="M61.47,55.17l-.17.38-3.63,8a3.622,3.622,0,0,0-.19,2.5l-2.3-6.54,4.16-9.18.24-.54,1.89,5.37Z" fill="#ae323e"/>
      <path id="Path_2" data-name="Path 2" d="M49.74,34.15H35.05a2.911,2.911,0,0,0-2.65,4.11l7.25,16.02a2.9,2.9,0,0,0,5.28.03l7.44-16.02a2.907,2.907,0,0,0-2.64-4.13Z" fill="#0b1528"/>
      <path id="Path_3" data-name="Path 3" d="M77.05,37.85a3.719,3.719,0,0,1-.33,1.52L64.39,66.6a3.685,3.685,0,0,1-3.29,2.17h-.27a3.7,3.7,0,0,1-1.33-.32,3.662,3.662,0,0,1-2.03-2.38h0a3.68,3.68,0,0,1,.19-2.5l3.63-8,.17-.38,8.53-18.84a3.689,3.689,0,0,1,7.05,1.53Z" fill="#ed2e39"/>
      <path id="Path_4" data-name="Path 4" d="M64.63,37.85a3.719,3.719,0,0,1-.33,1.52L59.58,49.8l-.24.54-4.16,9.18-.15.33L51.97,66.6a3.688,3.688,0,0,1-6.72-3.04l6.38-14.1,4.4-9.72,1.55-3.41a3.689,3.689,0,0,1,7.05,1.53Z" fill="#ed2e39"/>
    </g>
    <g id="Group_3" data-name="Group 3">
      <path id="Path_5" data-name="Path 5" d="M92.06,41.35c-1.17,0-3.26.07-4.84.09a1.06,1.06,0,0,0-1.06,1.06V60.42a1.08,1.08,0,0,0,1.06,1.06c1.86.03,3.61.05,4.61.05,7.63,0,11.48-4.64,11.48-10.27C103.31,45.96,100.08,41.35,92.06,41.35Zm-.12,16.9c-.48,0-1.29,0-2.25-.07V44.73c.8-.05,1.48-.08,2.32-.08,4.77,0,7.58,2.57,7.58,6.61S96.78,58.25,91.94,58.25Z" fill="#fff"/>
      <path id="Path_6" data-name="Path 6" d="M117.68,41.44h-1.03a1.516,1.516,0,0,0-1.29.74l-4.49,7.65-4.52-7.65a1.623,1.623,0,0,0-1.33-.74H103.8a1.089,1.089,0,0,0-1.1,1.06,1.149,1.149,0,0,0,.17.57l6.07,10.05v7.3A1.08,1.08,0,0,0,110,61.48h1.4a1.08,1.08,0,0,0,1.06-1.06v-7.3l6.12-10.05a.926.926,0,0,0,.15-.54,1.073,1.073,0,0,0-1.06-1.09Z" fill="#fff"/>
      <path id="Path_7" data-name="Path 7" d="M136.69,41.44h-1.18a1.08,1.08,0,0,0-1.06,1.06V55.38L123.98,42.13a1.6,1.6,0,0,0-1.29-.69h-1.01a1.08,1.08,0,0,0-1.06,1.06V60.42a1.08,1.08,0,0,0,1.06,1.06h1.18a1.08,1.08,0,0,0,1.06-1.06V47.59l10.47,13.2a1.667,1.667,0,0,0,1.29.69h1.01a1.08,1.08,0,0,0,1.06-1.06V42.5a1.08,1.08,0,0,0-1.06-1.06Z" fill="#fff"/>
      <path id="Path_8" data-name="Path 8" d="M158.34,59.96l-7.5-17.78a1.3,1.3,0,0,0-1.21-.79h-1.38a1.292,1.292,0,0,0-1.19.79l-7.5,17.78a1.4,1.4,0,0,0-.09.4,1.11,1.11,0,0,0,1.13,1.13h1.02a1.247,1.247,0,0,0,1.18-.81l1.78-4.32h8.56l1.76,4.32a1.247,1.247,0,0,0,1.18.81h1.23a1.1,1.1,0,0,0,1.11-1.13,1.344,1.344,0,0,0-.08-.4Zm-12.44-6.9,2.96-7.13,2.92,7.13h-5.87Z" fill="#fff"/>
      <path id="Path_9" data-name="Path 9" d="M179.32,41.44h-1.41a1.692,1.692,0,0,0-1.35.72l-6.03,8.64-6.34-8.64a1.773,1.773,0,0,0-1.37-.72h-1.63a1.074,1.074,0,0,0-1.06,1.06V60.42a1.074,1.074,0,0,0,1.06,1.06h1.39a1.074,1.074,0,0,0,1.06-1.06V47.07l5.28,7.28a1.71,1.71,0,0,0,1.37.77,1.677,1.677,0,0,0,1.35-.77l5.24-7.36V60.42a1.08,1.08,0,0,0,1.06,1.06h1.38a1.08,1.08,0,0,0,1.06-1.06V42.5A1.08,1.08,0,0,0,179.32,41.44Z" fill="#fff"/>
      <path id="Path_10" data-name="Path 10" d="M187.13,41.44h-1.41a1.072,1.072,0,0,0-1.05,1.06V60.42a1.072,1.072,0,0,0,1.05,1.06h1.41a1.08,1.08,0,0,0,1.06-1.06V42.5A1.08,1.08,0,0,0,187.13,41.44Z" fill="#fff"/>
      <path id="Path_11" data-name="Path 11" d="M207.34,58.62l-.52-.81a1,1,0,0,0-.91-.48,1.588,1.588,0,0,0-.66.16,7.059,7.059,0,0,1-3.61,1.01,6.646,6.646,0,0,1-6.92-7.04c0-4.18,2.8-7.04,6.52-7.04a7.637,7.637,0,0,1,3.55.97,1.211,1.211,0,0,0,.62.17.978.978,0,0,0,.86-.54l.6-1.06a1.121,1.121,0,0,0,.17-.57.932.932,0,0,0-.57-.83,11.465,11.465,0,0,0-5.24-1.43c-6.61,0-10.25,4.59-10.25,10.34,0,6.24,4.2,10.33,10.33,10.33a9.881,9.881,0,0,0,5.82-1.71.99.99,0,0,0,.4-.81,1.041,1.041,0,0,0-.2-.65Z" fill="#fff"/>
      <g id="Group_2" data-name="Group 2">
        <path id="Path_12" data-name="Path 12" d="M242.04,41.44h-.8a1.4,1.4,0,0,0-1.35,1.01l-3.71,13.31-4.27-13.31a1.411,1.411,0,0,0-1.38-1.01h-1.37a1.435,1.435,0,0,0-1.38,1.01l-4.15,13.28-3.75-13.28a1.419,1.419,0,0,0-1.35-1.01h-1.37a1.119,1.119,0,0,0-1.13,1.17,1.955,1.955,0,0,0,.07.41l5.21,17.46a1.486,1.486,0,0,0,1.37,1.01h1.21a1.422,1.422,0,0,0,1.38-1.01L229.71,47l4.49,13.48a1.481,1.481,0,0,0,1.39,1.01h1.18a1.422,1.422,0,0,0,1.35-1.01l4.97-17.46a1.535,1.535,0,0,0,.09-.52,1.019,1.019,0,0,0-1.15-1.06Z" fill="#fff"/>
        <path id="Path_13" data-name="Path 13" d="M253.15,41.12a10.073,10.073,0,0,0-10.42,10.34c0,6.24,4.47,10.33,10.42,10.33a10.336,10.336,0,1,0,0-20.67Zm0,17.38a6.768,6.768,0,0,1-6.69-7.04,6.718,6.718,0,1,1,13.42,0c0,4.15-2.52,7.04-6.73,7.04Z" fill="#fff"/>
        <path id="Path_14" data-name="Path 14" d="M280.47,59.81l-4.98-6.52a5.79,5.79,0,0,0,3.86-5.73c0-3.44-1.8-6.18-7.26-6.18-.46,0-3.33.03-5.04.05a1.054,1.054,0,0,0-1.06,1.06V60.41a1.08,1.08,0,0,0,1.06,1.06h1.41a1.08,1.08,0,0,0,1.06-1.06V53.97h2.45l5.01,6.79a1.824,1.824,0,0,0,1.38.72h1.31a1.022,1.022,0,0,0,1.03-1.03.971.971,0,0,0-.23-.64Zm-8.68-9.13h-2.28V44.73c.94-.03,1.74-.05,2.4-.05,2.86,0,3.72,1.34,3.72,2.92,0,2.07-1.8,3.09-3.84,3.09Z" fill="#fff"/>
        <path id="Path_15" data-name="Path 15" d="M297.73,59.85l-7.41-9.08,6.84-7.75a.889.889,0,0,0,.23-.64.919.919,0,0,0-.91-.94h-1.29a1.857,1.857,0,0,0-1.41.66l-7.36,8.84V42.5a1.08,1.08,0,0,0-1.06-1.06h-1.41a1.08,1.08,0,0,0-1.06,1.06V60.42a1.08,1.08,0,0,0,1.06,1.06h1.41a1.08,1.08,0,0,0,1.06-1.06V51.14l7.65,9.65a1.829,1.829,0,0,0,1.39.69h1.52a.992.992,0,0,0,.97-1.01.891.891,0,0,0-.23-.62Z" fill="#fff"/>
        <path id="Path_16" data-name="Path 16" d="M302.64,46.62c0-1.31,1.06-2.2,2.81-2.2a6.6,6.6,0,0,1,2.86.74,1.187,1.187,0,0,0,.52.11,1.094,1.094,0,0,0,.94-.57l.54-.94a.97.97,0,0,0,.15-.49,1.07,1.07,0,0,0-.52-.92,9.054,9.054,0,0,0-4.79-1.23c-3.88,0-6.23,2.52-6.23,5.53,0,6.52,9.07,5.55,9.07,9.5,0,1.51-1.26,2.35-2.92,2.35a5.922,5.922,0,0,1-3.63-1.6,1.275,1.275,0,0,0-.81-.32,1,1,0,0,0-.72.32l-.94,1.01a.877.877,0,0,0-.25.62,1.062,1.062,0,0,0,.37.83,8.009,8.009,0,0,0,5.92,2.43c3.75,0,6.69-2.28,6.69-5.66,0-6.67-9.08-5.36-9.08-9.5Z" fill="#fff"/>
      </g>
    </g>
  </g>
</svg>
