<?xml version="1.0" encoding="UTF-8"?>
<svg id="Layer_2" data-name="Layer 2" xmlns="http://www.w3.org/2000/svg" viewBox="0 0 166 41.03">
  <defs>
    <style>
      .cls-1 {
        fill: #fff;
      }
    </style>
  </defs>
  <g id="Layer_1-2" data-name="Layer 1">
    <g>
      <g>
        <path class="cls-1" d="M1.36.32c1.59-.03,3.41-.1,4.84-.1,9.09,0,12.76,5.23,12.76,11.17,0,6.46-4.35,11.72-13.02,11.72-1.23,0-2.83-.03-4.58-.06-.75,0-1.36-.62-1.36-1.36V1.69C0,.94.58.32,1.36.32ZM2.76,20.46c1.49.03,2.89.06,3.28.06,6.49,0,10-3.83,10-9.13,0-4.94-3.31-8.57-9.9-8.57-1.36,0-2.24.06-3.38.1v17.54Z"/>
        <path class="cls-1" d="M25.07.16c.58,0,.94.29,1.36,1.01l5.85,9.55,5.88-9.55c.39-.65.81-1.01,1.43-1.01.81,0,1.23.55,1.23,1.17,0,.26-.1.52-.23.75l-7.05,11.24v8.61c0,.75-.62,1.36-1.36,1.36s-1.4-.62-1.4-1.36v-8.61l-6.88-11.04c-.16-.26-.23-.52-.23-.78,0-.71.55-1.33,1.4-1.33Z"/>
        <path class="cls-1" d="M64.78,1.43c0-.68.58-1.27,1.3-1.27s1.3.58,1.3,1.27v20.46c0,.81-.45,1.4-1.17,1.4s-1.1-.32-1.66-1.01l-13.57-17.11v16.85c0,.68-.58,1.27-1.3,1.27s-1.3-.58-1.3-1.27V1.69c0-.78.39-1.53,1.27-1.53.68,0,1.1.32,1.75,1.17l13.38,16.92V1.43Z"/>
        <path class="cls-1" d="M90.27,16.17h-10.36l-2.6,6.2c-.29.71-.71.91-1.23.91-.84,0-1.3-.62-1.3-1.27,0-.19.06-.39.13-.58L83.62,1.27c.29-.65.81-1.1,1.59-1.1s1.3.49,1.56,1.1l8.67,20.07c.06.19.1.36.1.55,0,.71-.49,1.4-1.33,1.4-.58,0-1.07-.36-1.3-.91l-2.63-6.2ZM85.11,3.86l-4.09,9.71h8.18l-4.09-9.71Z"/>
        <path class="cls-1" d="M115.51,14.26c-.45.62-.94.88-1.46.88-.49,0-1.01-.26-1.46-.88l-6.88-9.42v17.08c0,.75-.62,1.36-1.36,1.36s-1.4-.62-1.4-1.36V1.92c0-1.04.65-1.75,1.59-1.75.84,0,1.36.45,1.79,1.04l7.96,10.78,7.63-10.88c.32-.49.84-.94,1.59-.94,1.04,0,1.59.78,1.59,1.56v20.2c0,.75-.62,1.36-1.36,1.36s-1.4-.62-1.4-1.36V4.64l-6.82,9.61Z"/>
        <path class="cls-1" d="M137.2.16c.75,0,1.36.62,1.36,1.33v20.43c0,.75-.62,1.36-1.36,1.36s-1.4-.62-1.4-1.36V1.49c0-.71.62-1.33,1.4-1.33Z"/>
        <path class="cls-1" d="M163.47,3.64c-1.27-.68-2.76-1.04-4.61-1.04-4.94,0-8.44,3.7-8.44,9.09s3.6,9.09,8.87,9.09c1.75,0,3.31-.42,4.71-1.27.26-.16.55-.23.81-.23.36,0,.71.13.97.45.16.19.23.42.23.65,0,.42-.26.84-.62,1.1-1.66,1.17-3.96,1.88-6.36,1.88-6.82,0-11.53-4.61-11.53-11.69,0-6.53,4.22-11.69,11.33-11.69,2.4,0,4.55.65,5.98,1.53.45.29.68.68.68,1.1,0,.19-.06.42-.19.62-.26.42-.62.58-1.04.58-.26,0-.52-.07-.78-.19Z"/>
      </g>
      <g>
        <path class="cls-1" d="M6.56,40.99c-.26,0-.44-.13-.61-.34l-2.85-3.74h-1.62v3.48c0,.33-.27.6-.6.6s-.61-.27-.61-.6v-8.85c0-.33.27-.6.6-.6.75-.01,1.86-.03,2.07-.03,2.71,0,3.54,1.35,3.54,2.95s-1.07,2.53-2.16,2.81l2.64,3.34c.1.13.16.28.16.41,0,.3-.21.55-.55.55ZM1.47,35.78h1.46c1.15,0,2.26-.71,2.26-1.89,0-1.02-.57-1.83-2.33-1.83-.31,0-.92.01-1.39.03v3.69Z"/>
        <path class="cls-1" d="M25.73,39.75c.3,0,.55.26.55.57s-.26.57-.55.57h-4.6c-.33,0-.6-.27-.6-.6v-8.75c0-.33.27-.6.6-.6h4.46c.3,0,.55.26.55.57s-.26.57-.55.57h-3.85v3.21h3.42c.3,0,.55.26.55.57s-.26.57-.55.57h-3.42v3.32h3.99Z"/>
        <path class="cls-1" d="M39.4,39.9c-.11-.1-.17-.26-.17-.4,0-.13.04-.26.13-.36.11-.14.28-.21.44-.21.11,0,.23.03.33.1.75.55,1.33.87,2.05.87,1.04,0,1.95-.54,1.95-1.55,0-2.43-4.86-1.65-4.86-4.94,0-1.43,1.11-2.6,3-2.6.92,0,1.7.27,2.33.67.14.1.23.27.23.45,0,.1-.03.21-.1.3-.13.17-.3.27-.47.27-.11,0-.21-.04-.33-.1-.47-.28-.92-.45-1.59-.45-1.11,0-1.79.58-1.79,1.46,0,2.46,4.86,1.53,4.86,4.93,0,1.63-1.43,2.7-3.24,2.7-1.05,0-1.93-.44-2.76-1.14Z"/>
        <path class="cls-1" d="M59.79,30.88c.33,0,.6.27.6.58v8.93c0,.33-.27.6-.6.6s-.61-.27-.61-.6v-8.93c0-.31.27-.58.61-.58Z"/>
        <path class="cls-1" d="M75.61,30.95c.7-.01,1.49-.04,2.12-.04,3.98,0,5.58,2.29,5.58,4.89,0,2.83-1.9,5.13-5.7,5.13-.54,0-1.24-.01-2-.03-.33,0-.6-.27-.6-.6v-8.75c0-.33.26-.6.6-.6ZM76.22,39.75c.65.01,1.26.03,1.43.03,2.84,0,4.37-1.68,4.37-3.99,0-2.16-1.45-3.75-4.33-3.75-.6,0-.98.03-1.48.04v7.67Z"/>
        <path class="cls-1" d="M102.08,39.75c.3,0,.55.26.55.57s-.26.57-.55.57h-4.6c-.33,0-.6-.27-.6-.6v-8.75c0-.33.27-.6.6-.6h4.46c.3,0,.55.26.55.57s-.26.57-.55.57h-3.85v3.21h3.42c.3,0,.55.26.55.57s-.26.57-.55.57h-3.42v3.32h3.99Z"/>
        <path class="cls-1" d="M123.58,31.43c0-.3.26-.55.57-.55s.57.26.57.55v8.95c0,.36-.2.61-.51.61s-.48-.14-.72-.44l-5.94-7.48v7.37c0,.3-.26.55-.57.55s-.57-.26-.57-.55v-8.89c0-.34.17-.67.55-.67.3,0,.48.14.77.51l5.85,7.4v-7.36Z"/>
        <path class="cls-1" d="M145.27,32.4c-.55-.3-1.21-.45-2.02-.45-2.16,0-3.69,1.62-3.69,3.98s1.58,3.98,3.88,3.98c.77,0,1.45-.18,2.06-.55.11-.07.24-.1.35-.1.16,0,.31.06.43.2.07.09.1.18.1.28,0,.18-.11.37-.27.48-.72.51-1.73.82-2.78.82-2.98,0-5.04-2.02-5.04-5.11,0-2.85,1.85-5.11,4.96-5.11,1.05,0,1.99.28,2.61.67.2.13.3.3.3.48,0,.09-.03.18-.09.27-.11.18-.27.26-.45.26-.11,0-.23-.03-.34-.09Z"/>
        <path class="cls-1" d="M158.85,30.88c.26,0,.41.13.6.44l2.56,4.18,2.57-4.18c.17-.28.36-.44.62-.44.35,0,.54.24.54.51,0,.11-.04.23-.1.33l-3.08,4.91v3.76c0,.33-.27.6-.6.6s-.61-.27-.61-.6v-3.76l-3.01-4.83c-.07-.11-.1-.23-.1-.34,0-.31.24-.58.61-.58Z"/>
      </g>
    </g>
  </g>
</svg>