<svg id="Layer_1" data-name="Layer 1" xmlns="http://www.w3.org/2000/svg" width="58.537" height="46" viewBox="0 0 58.537 46">
  <path id="Path_182" data-name="Path 182" d="M38.516,41.509H1.971a1.971,1.971,0,1,1,0-3.941H38.516a1.971,1.971,0,1,1,0,3.941Z" transform="translate(0 -32.067)" fill="#fc2433"/>
  <path id="Path_183" data-name="Path 183" d="M84.007,127.542a1.923,1.923,0,0,1-.586-.091,29.342,29.342,0,0,1-10.074-5.463,29.891,29.891,0,0,1-8.887-12.654,1.969,1.969,0,0,1,3.7-1.354,25.893,25.893,0,0,0,7.7,10.98,25.376,25.376,0,0,0,8.735,4.733,1.97,1.97,0,0,1-.586,3.85Z" transform="translate(-54.912 -91.053)" fill="#fc2433"/>
  <path id="Path_184" data-name="Path 184" d="M22.554,73.662a1.972,1.972,0,0,1-1.119-3.593A65.5,65.5,0,0,0,36.958,54.987a65.3,65.3,0,0,0,8.659-16.094,1.972,1.972,0,1,1,3.7,1.37,69.278,69.278,0,0,1-9.184,17.061A69.42,69.42,0,0,1,23.673,73.312,1.961,1.961,0,0,1,22.554,73.662Z" transform="translate(-17.57 -32.098)" fill="#fc2433"/>
  <path id="Path_185" data-name="Path 185" d="M233.412,150.537l-2.374,5.783a1.657,1.657,0,0,1-1.567,1.073h-1.377A1.47,1.47,0,0,1,226.6,155.9a1.494,1.494,0,0,1,.114-.533l10.029-23.77a1.746,1.746,0,0,1,1.605-1.073h1.834a1.738,1.738,0,0,1,1.605,1.073l10.029,23.77a1.494,1.494,0,0,1,.114.533,1.465,1.465,0,0,1-1.491,1.491H248.8a1.65,1.65,0,0,1-1.567-1.073l-2.374-5.783Zm1.8-4.4h7.845l-3.9-9.534Z" transform="translate(-193.395 -111.393)" fill="#fc2433"/>
  <path id="Path_186" data-name="Path 186" d="M126.729,9.443a1.971,1.971,0,0,1-1.971-1.971v-5.5a1.971,1.971,0,0,1,3.941,0V7.48a1.971,1.971,0,0,1-1.971,1.971Z" transform="translate(-106.481)" fill="#fc2433"/>
</svg>
