<svg xmlns="http://www.w3.org/2000/svg" width="598.298" height="74.11" viewBox="0 0 598.298 74.11">
  <g id="Group_4" data-name="Group 4" transform="translate(-85.32 -5468.74)">
    <g id="Group_16" data-name="Group 16" transform="translate(200.617 5483.731)">
      <path id="Path_22" data-name="Path 22" d="M175.839,5479.2c-2.5,0-6.985.12-10.344.179a2.245,2.245,0,0,0-2.264,2.264V5520a2.293,2.293,0,0,0,2.264,2.264c3.981.073,7.71.119,9.856.119,16.367,0,24.581-9.916,24.581-21.992,0-11.35-6.941-21.207-24.107-21.207Zm-.237,36.168c-1.036,0-2.782,0-4.869-.118v-28.827c1.731-.119,3.2-.193,4.972-.193,10.226,0,16.234,5.535,16.234,14.162,0,9.072-5.993,14.962-16.338,14.962Z" transform="translate(-163.23 -5478.715)" fill="#fff"/>
      <path id="Path_23" data-name="Path 23" d="M219.224,5479.329h-2.2a3.243,3.243,0,0,0-2.782,1.6l-9.6,16.368-9.693-16.368a3.362,3.362,0,0,0-2.8-1.6h-2.634a2.32,2.32,0,0,0-2.338,2.264,2.208,2.208,0,0,0,.37,1.229l12.993,21.5v15.627a2.294,2.294,0,0,0,2.264,2.265h3a2.293,2.293,0,0,0,2.264-2.265v-15.627l13.126-21.5a2.2,2.2,0,0,0,.3-1.184,2.264,2.264,0,0,0-2.264-2.309Z" transform="translate(-151.742 -5478.648)" fill="#fff"/>
      <path id="Path_24" data-name="Path 24" d="M247.478,5479.335h-2.531a2.292,2.292,0,0,0-2.264,2.263v27.569l-22.435-28.383a3.5,3.5,0,0,0-2.753-1.466h-2.131a2.293,2.293,0,0,0-2.264,2.264v38.358a2.293,2.293,0,0,0,2.264,2.264h2.5a2.293,2.293,0,0,0,2.264-2.264v-27.452l22.435,28.268a3.568,3.568,0,0,0,2.753,1.465h2.146a2.294,2.294,0,0,0,2.264-2.264V5481.6a2.292,2.292,0,0,0-2.264-2.263Z" transform="translate(-139.299 -5478.654)" fill="#fff"/>
      <path id="Path_25" data-name="Path 25" d="M280.731,5519.028l-16.042-38.062a2.838,2.838,0,0,0-2.575-1.716h-2.96a2.815,2.815,0,0,0-2.575,1.716l-16.042,38.063a2.131,2.131,0,0,0-.178.859,2.353,2.353,0,0,0,2.383,2.382h2.205a2.647,2.647,0,0,0,2.516-1.717l3.8-9.264H269.6l3.8,9.264a2.663,2.663,0,0,0,2.5,1.717h2.634a2.353,2.353,0,0,0,2.383-2.382,2.131,2.131,0,0,0-.178-.859Zm-26.608-14.769L260.442,5489l6.245,15.258H254.108Z" transform="translate(-126.217 -5478.688)" fill="#fff"/>
      <path id="Path_26" data-name="Path 26" d="M311.317,5479.329h-3a3.585,3.585,0,0,0-2.871,1.524l-12.949,18.528-13.541-18.528a3.744,3.744,0,0,0-2.945-1.524h-3.492a2.293,2.293,0,0,0-2.264,2.264v38.358a2.294,2.294,0,0,0,2.264,2.265h3a2.294,2.294,0,0,0,2.264-2.265v-28.577l11.277,15.584a3.422,3.422,0,0,0,5.846,0l11.2-15.761v28.754a2.293,2.293,0,0,0,2.264,2.265h2.945a2.294,2.294,0,0,0,2.264-2.265v-38.358A2.293,2.293,0,0,0,311.317,5479.329Z" transform="translate(-111.874 -5478.648)" fill="#fff"/>
      <path id="Path_27" data-name="Path 27" d="M311.018,5479.329h-3a2.293,2.293,0,0,0-2.264,2.264v38.358a2.293,2.293,0,0,0,2.264,2.265h3a2.293,2.293,0,0,0,2.264-2.265v-38.358A2.293,2.293,0,0,0,311.018,5479.329Z" transform="translate(-94.838 -5478.648)" fill="#fff"/>
      <path id="Path_28" data-name="Path 28" d="M349.889,5516.305l-1.11-1.717a2.1,2.1,0,0,0-1.939-1.036,3.209,3.209,0,0,0-1.406.37,15.435,15.435,0,0,1-7.725,2.146c-8.746,0-14.814-6.142-14.814-15.1s5.994-15.064,13.955-15.064a16.321,16.321,0,0,1,7.621,2.086,2.629,2.629,0,0,0,1.347.37,2.1,2.1,0,0,0,1.835-1.154l1.3-2.263a2.693,2.693,0,0,0,.37-1.229,1.989,1.989,0,0,0-1.228-1.776,24.456,24.456,0,0,0-11.232-3.063c-14.148,0-21.947,9.8-21.947,22.109,0,13.378,9.027,22.139,22.139,22.139a21.188,21.188,0,0,0,12.461-3.685,2.072,2.072,0,0,0,.858-1.718,2.364,2.364,0,0,0-.444-1.405Z" transform="translate(-90.438 -5478.865)" fill="#fff"/>
      <g id="Group_15" data-name="Group 15" transform="translate(278.083)">
        <path id="Path_29" data-name="Path 29" d="M406.828,5479.329h-1.717a3.043,3.043,0,0,0-2.871,2.146l-7.962,28.5-9.146-28.5a3.025,3.025,0,0,0-2.945-2.146h-2.945a3.136,3.136,0,0,0-2.945,2.146L367.4,5509.9l-8.036-28.429a3.024,3.024,0,0,0-2.871-2.146h-2.945a2.387,2.387,0,0,0-2.412,2.5,3.981,3.981,0,0,0,.133.858l11.129,37.4a3.189,3.189,0,0,0,2.945,2.146h2.59a3.043,3.043,0,0,0,2.945-2.146l9.486-28.871L390,5520.085a3.125,3.125,0,0,0,3,2.146h2.5a3.094,3.094,0,0,0,2.9-2.146l10.655-37.4a3.629,3.629,0,0,0,.192-1.1,2.171,2.171,0,0,0-2.457-2.264Z" transform="translate(-351.14 -5478.648)" fill="#fff"/>
        <path id="Path_30" data-name="Path 30" d="M412.087,5478.869c-13.2,0-22.317,9.679-22.317,22.11,0,13.378,9.56,22.138,22.317,22.138s22.361-9.264,22.361-22.138S424.813,5478.869,412.087,5478.869Zm0,37.219c-8.036,0-14.355-6.511-14.355-15.095s6.141-15.065,14.355-15.065,14.4,6.2,14.4,15.065S421.084,5516.088,412.087,5516.088Z" transform="translate(-332.602 -5478.869)" fill="#fff"/>
        <path id="Path_31" data-name="Path 31" d="M454.4,5518.718l-10.655-13.985a12.44,12.44,0,0,0,8.273-12.268c0-7.355-3.862-13.215-15.554-13.215-.992,0-7.1.044-10.788.118a2.245,2.245,0,0,0-2.264,2.264v38.358a2.292,2.292,0,0,0,2.264,2.263h2.989a2.292,2.292,0,0,0,2.264-2.263V5506.2h5.283l10.714,14.532a3.81,3.81,0,0,0,2.945,1.523H452.7a2.194,2.194,0,0,0,2.22-2.205,1.994,1.994,0,0,0-.5-1.347Zm-18.558-19.563h-4.913V5486.4c2.042-.044,3.744-.118,5.165-.118,6.142,0,7.962,2.871,7.962,6.245,0,4.426-3.862,6.615-8.213,6.615Z" transform="translate(-316.459 -5478.688)" fill="#fff"/>
        <path id="Path_32" data-name="Path 32" d="M479.633,5518.738l-15.879-19.431,14.651-16.619a1.793,1.793,0,0,0,.488-1.347,1.976,1.976,0,0,0-1.968-2.013h-2.753a4.048,4.048,0,0,0-2.989,1.407l-15.761,18.941v-18.085a2.293,2.293,0,0,0-2.264-2.264h-3a2.293,2.293,0,0,0-2.264,2.264v38.358a2.293,2.293,0,0,0,2.264,2.265h3a2.293,2.293,0,0,0,2.264-2.265v-19.859l16.367,20.675a4.011,4.011,0,0,0,3,1.465h3.241a2.115,2.115,0,0,0,2.087-2.146,2.079,2.079,0,0,0-.488-1.347Z" transform="translate(-304.712 -5478.648)" fill="#fff"/>
        <path id="Path_33" data-name="Path 33" d="M479.171,5490.629c0-2.827,2.264-4.721,6.023-4.721a14.029,14.029,0,0,1,6.141,1.6,2.373,2.373,0,0,0,1.1.251,2.444,2.444,0,0,0,2.042-1.229l1.154-2.042a1.92,1.92,0,0,0,.3-1.036,2.174,2.174,0,0,0-1.11-1.938,19.319,19.319,0,0,0-10.226-2.634c-8.332,0-13.363,5.4-13.363,11.825,0,13.955,19.431,11.883,19.431,20.348,0,3.24-2.679,5.017-6.245,5.017-2.383,0-5.017-1.183-7.784-3.433a2.59,2.59,0,0,0-1.717-.7,2,2,0,0,0-1.524.7l-2.042,2.131a2.008,2.008,0,0,0-.533,1.347,2.347,2.347,0,0,0,.784,1.776c4.232,3.936,8.036,5.209,12.683,5.209,8.036,0,14.355-4.912,14.355-12.135,0-14.28-19.446-11.455-19.446-20.349Z" transform="translate(-293.713 -5478.865)" fill="#fff"/>
      </g>
    </g>
    <g id="Group_17" data-name="Group 17" transform="translate(85.32 5468.74)">
      <path id="Path_34" data-name="Path 34" d="M132.122,5502.878l-.37.813-7.769,17.137a7.836,7.836,0,0,0-.414,5.358l-4.928-14,8.894-19.652.518-1.154,4.04,11.5Z" transform="translate(-69.331 -5457.875)" fill="#fff"/>
      <path id="Path_35" data-name="Path 35" d="M123,5468.739H91.55a6.222,6.222,0,0,0-5.668,8.79l15.524,34.319a6.23,6.23,0,0,0,11.321.06l15.923-34.319A6.23,6.23,0,0,0,123,5468.739Z" transform="translate(-85.32 -5468.739)" fill="#fff"/>
      <path id="Path_36" data-name="Path 36" d="M163.968,5476.657a7.963,7.963,0,0,1-.7,3.256l-26.4,58.293a7.852,7.852,0,0,1-7.044,4.631h-.562a7.51,7.51,0,0,1-2.841-.694,7.907,7.907,0,0,1-4.351-5.092h0a7.921,7.921,0,0,1,.414-5.357l7.769-17.137.37-.813,18.276-40.356A7.9,7.9,0,0,1,164,5476.657Z" transform="translate(-67.821 -5468.74)" fill="#fff"/>
      <path id="Path_37" data-name="Path 37" d="M146,5476.657a7.964,7.964,0,0,1-.7,3.256l-10.122,22.331-.518,1.154-8.894,19.652-.326.7-6.541,14.459a7.9,7.9,0,0,1-14.4-6.512l13.674-30.189,9.427-20.808,3.315-7.31a7.9,7.9,0,0,1,15.095,3.271Z" transform="translate(-76.451 -5468.74)" fill="#fff"/>
    </g>
  </g>
</svg>
