<svg id="Objects" xmlns="http://www.w3.org/2000/svg" width="43.95" height="58" viewBox="0 0 43.95 58">
  <path id="Path_175" data-name="Path 175" d="M21.975,58.01a5.069,5.069,0,0,1-3.238-1.18A62.615,62.615,0,0,1,7.626,44.562,47.221,47.221,0,0,1,2.29,34.339,36.247,36.247,0,0,1,0,21.849a21.5,21.5,0,0,1,1.727-8.5A22.033,22.033,0,0,1,37.512,6.408,21.7,21.7,0,0,1,43.95,21.849a36.247,36.247,0,0,1-2.29,12.49,47.221,47.221,0,0,1-5.336,10.222A62.4,62.4,0,0,1,25.214,56.83,5.027,5.027,0,0,1,21.975,58.01Zm0-52.874a16.8,16.8,0,0,0-11.882,4.889A16.595,16.595,0,0,0,5.174,21.841,31.035,31.035,0,0,0,7.155,32.577a42.139,42.139,0,0,0,4.757,9.111A57.375,57.375,0,0,0,21.983,52.83a57.375,57.375,0,0,0,10.07-11.142,42.139,42.139,0,0,0,4.757-9.111,31.216,31.216,0,0,0,1.982-10.736,16.759,16.759,0,0,0-16.8-16.7Z" transform="translate(0 -0.01)" fill="#fc2433"/>
  <path id="Path_176" data-name="Path 176" d="M22.433,56.921a3.51,3.51,0,0,1-2.244-.82A60.933,60.933,0,0,1,9.356,44.144,45.511,45.511,0,0,1,4.2,34.255,34.71,34.71,0,0,1,2,22.289,20.143,20.143,0,0,1,7.983,7.934,20.578,20.578,0,0,1,30.39,3.583,20.252,20.252,0,0,1,42.866,22.289a34.743,34.743,0,0,1-2.2,11.965,45.852,45.852,0,0,1-5.158,9.889A60.934,60.934,0,0,1,24.677,56.1a3.479,3.479,0,0,1-2.244.82Zm0-52.855A18.372,18.372,0,0,0,9.456,9.405,18.133,18.133,0,0,0,4.082,22.3,32.5,32.5,0,0,0,6.156,33.55a43.769,43.769,0,0,0,4.927,9.437A58.7,58.7,0,0,0,21.539,54.524a1.385,1.385,0,0,0,1.789,0A58.945,58.945,0,0,0,33.783,42.987,43.092,43.092,0,0,0,38.71,33.55,32.709,32.709,0,0,0,40.784,22.3,18.011,18.011,0,0,0,39.342,15.2,18.358,18.358,0,0,0,22.433,4.066Z" transform="translate(-0.458 -0.463)" fill="#fc2433"/>
  <ellipse id="Ellipse_7" data-name="Ellipse 7" cx="5.012" cy="5.012" rx="5.012" ry="5.012" transform="translate(16.963 14.801)" fill="#fc2433"/>
</svg>
