<svg xmlns="http://www.w3.org/2000/svg" width="82.762" height="63.779" viewBox="0 0 82.762 63.779">
  <g id="Layer_1" data-name="Layer 1" transform="translate(0.001)">
    <g id="Group_75" data-name="Group 75" transform="translate(-0.001)">
      <path id="Path_298" data-name="Path 298" d="M34.621,25.544l-.313.7L27.619,40.987a6.674,6.674,0,0,0-.35,4.607L23.03,33.542,30.7,16.625l.442-1,3.483,9.9Z" transform="translate(19.412 13.173)" fill="#ae323e"/>
      <path id="Path_299" data-name="Path 299" d="M32.434,0H5.364A5.364,5.364,0,0,0,.48,7.574L13.84,37.1a5.351,5.351,0,0,0,9.73.055L37.281,7.629A5.357,5.357,0,0,0,32.434,0Z" transform="translate(0.001)" fill="#0b1528"/>
      <path id="Path_300" data-name="Path 300" d="M61.525,6.8a6.853,6.853,0,0,1-.608,2.8L38.2,59.78a6.79,6.79,0,0,1-6.063,4h-.5a6.821,6.821,0,0,1-2.451-.59A6.749,6.749,0,0,1,25.444,58.8h0a6.781,6.781,0,0,1,.35-4.607l6.689-14.742.313-.7L48.534,4A6.8,6.8,0,0,1,61.525,6.818Z" transform="translate(21.237 0)" fill="#ed2e39"/>
      <path id="Path_301" data-name="Path 301" d="M49.1,6.8a6.853,6.853,0,0,1-.608,2.8l-8.7,19.22-.442,1L31.685,46.733l-.276.608L25.77,59.78a6.8,6.8,0,0,1-12.384-5.6L25.143,28.194l8.108-17.912L36.108,4A6.8,6.8,0,0,1,49.1,6.818Z" transform="translate(10.775 0)" fill="#ed2e39"/>
    </g>
  </g>
</svg>
