<svg xmlns="http://www.w3.org/2000/svg" width="537.596" height="256.277" viewBox="0 0 537.596 256.277">
  <g id="Group_85" data-name="Group 85" transform="translate(-443.202 -12525)">
    <g id="Layer_1" data-name="Layer 1" transform="translate(614.201 12525.003)">
      <g id="Group_79" data-name="Group 79" transform="translate(0.001 -0.003)">
        <path id="Path_304" data-name="Path 304" d="M52.282,40.317l-.736,1.675-15.9,35.06A15.947,15.947,0,0,0,34.793,88L24.7,59.359,42.925,19.15l1.062-2.37,8.3,23.537Z" transform="translate(76.226 51.8)" fill="#e5e5e4"/>
        <path id="Path_305" data-name="Path 305" d="M77.145,0h-64.4a12.747,12.747,0,0,0-11.6,17.98L32.932,88.222a12.745,12.745,0,0,0,23.169.123L88.709,18.1A12.736,12.736,0,0,0,77.145,0Z" transform="translate(-0.001 0.012)" fill="#fff"/>
        <path id="Path_306" data-name="Path 306" d="M113.388,16.16a16.03,16.03,0,0,1-1.43,6.661L57.938,142.139a16.052,16.052,0,0,1-14.425,9.48H42.369a15.931,15.931,0,0,1-5.843-1.43,16.2,16.2,0,0,1-8.908-10.42h0a15.93,15.93,0,0,1,.858-10.951l15.9-35.06.736-1.675L82.5,9.5a16.166,16.166,0,0,1,30.892,6.7Z" transform="translate(83.402 0.034)" fill="#fff"/>
        <path id="Path_307" data-name="Path 307" d="M100.093,16.191a16.03,16.03,0,0,1-1.43,6.661L77.945,68.577l-1.062,2.37L58.658,111.156,58,112.586,44.6,142.17a16.175,16.175,0,0,1-29.462-13.362L43.13,67.024,62.417,24.445,69.2,9.489a16.193,16.193,0,0,1,30.933,6.7Z" transform="translate(42.268 0.003)" fill="#fff"/>
      </g>
    </g>
    <g id="Layer_1-2" data-name="Layer 1" transform="translate(443.202 12732)">
      <g id="Group_81" data-name="Group 81">
        <path id="Path_308" data-name="Path 308" d="M14.047.24c-2.778,0-7.779.133-11.513.2A2.547,2.547,0,0,0,0,2.974v42.7a2.577,2.577,0,0,0,2.534,2.534c4.423.067,8.579.133,10.98.133,18.226,0,27.361-11.024,27.361-24.494C40.875,11.22,33.14.24,14.047.24Zm-.267,40.275c-1.156,0-3.09,0-5.423-.133V8.286c1.934-.133,3.556-.2,5.534-.2,11.4,0,18.07,6.157,18.07,15.781,0,10.113-6.668,16.648-18.2,16.648Z" transform="translate(0 0.293)" fill="#fff"/>
        <path id="Path_309" data-name="Path 309" d="M53.424.34H50.979a3.564,3.564,0,0,0-3.09,1.778L37.2,20.344,26.4,2.118A3.712,3.712,0,0,0,23.284.34H20.351a2.576,2.576,0,0,0-2.6,2.534,2.328,2.328,0,0,0,.422,1.356l14.47,23.938v17.4a2.577,2.577,0,0,0,2.534,2.534h3.356a2.577,2.577,0,0,0,2.534-2.534v-17.4L55.669,4.23A2.454,2.454,0,0,0,56,2.918,2.527,2.527,0,0,0,53.468.34Z" transform="translate(21.702 0.416)" fill="#fff"/>
        <path id="Path_310" data-name="Path 310" d="M75.257.352h-2.8a2.577,2.577,0,0,0-2.534,2.534v30.7L44.939,1.975A3.879,3.879,0,0,0,41.872.352H39.494A2.577,2.577,0,0,0,36.96,2.886v42.7a2.577,2.577,0,0,0,2.534,2.534h2.778a2.577,2.577,0,0,0,2.534-2.534V15L69.789,46.473A3.946,3.946,0,0,0,72.856,48.1h2.4a2.577,2.577,0,0,0,2.534-2.534V2.864A2.577,2.577,0,0,0,75.257.33Z" transform="translate(45.19 0.403)" fill="#fff"/>
        <path id="Path_311" data-name="Path 311" d="M102.112,44.556,84.264,2.191A3.149,3.149,0,0,0,81.4.28h-3.29A3.173,3.173,0,0,0,75.24,2.191L57.37,44.556a2.239,2.239,0,0,0-.2.956,2.609,2.609,0,0,0,2.645,2.645H62.26a2.947,2.947,0,0,0,2.8-1.911l4.223-10.313h20.4l4.223,10.313a2.982,2.982,0,0,0,2.778,1.911h2.934a2.608,2.608,0,0,0,2.645-2.645,2.239,2.239,0,0,0-.2-.956ZM72.506,28.108l7.046-16.981,6.957,16.981h-14Z" transform="translate(69.9 0.342)" fill="#fff"/>
        <path id="Path_312" data-name="Path 312" d="M125.05.352h-3.356a3.964,3.964,0,0,0-3.2,1.711L104.09,22.69,89.021,2.064A4.251,4.251,0,0,0,85.754.352h-3.89A2.577,2.577,0,0,0,79.33,2.886v42.7a2.577,2.577,0,0,0,2.534,2.534H85.22a2.577,2.577,0,0,0,2.534-2.534V13.777l12.558,17.337a4.013,4.013,0,0,0,3.267,1.823,4.059,4.059,0,0,0,3.223-1.823l12.469-17.559V45.561a2.577,2.577,0,0,0,2.534,2.534h3.267a2.577,2.577,0,0,0,2.534-2.534V2.864A2.577,2.577,0,0,0,125.072.33Z" transform="translate(96.994 0.403)" fill="#fff"/>
        <path id="Path_313" data-name="Path 313" d="M111.52.352h-3.356a2.577,2.577,0,0,0-2.534,2.534v42.7a2.577,2.577,0,0,0,2.534,2.534h3.356a2.577,2.577,0,0,0,2.534-2.534V2.864A2.577,2.577,0,0,0,111.52.33Z" transform="translate(129.15 0.403)" fill="#fff"/>
        <path id="Path_314" data-name="Path 314" d="M151.369,41.663l-1.245-1.911a2.354,2.354,0,0,0-2.156-1.156,3.732,3.732,0,0,0-1.578.422,17.271,17.271,0,0,1-8.6,2.4c-9.735,0-16.492-6.824-16.492-16.8s6.668-16.781,15.536-16.781a18.38,18.38,0,0,1,8.491,2.312,2.863,2.863,0,0,0,1.489.422,2.379,2.379,0,0,0,2.045-1.289L150.3,6.745a2.967,2.967,0,0,0,.422-1.356,2.234,2.234,0,0,0-1.356-1.978A27.2,27.2,0,0,0,136.877.01c-15.759,0-24.427,10.913-24.427,24.6,0,14.892,10.046,24.649,24.649,24.649a23.705,23.705,0,0,0,13.869-4.09,2.288,2.288,0,0,0,.956-1.911,2.8,2.8,0,0,0-.489-1.578Z" transform="translate(137.489 0.012)" fill="#fff"/>
        <g id="Group_80" data-name="Group 80" transform="translate(309.64)">
          <path id="Path_315" data-name="Path 315" d="M201.256.34h-1.911a3.389,3.389,0,0,0-3.2,2.4l-8.868,31.717L177.1,2.74a3.388,3.388,0,0,0-3.267-2.4h-3.267a3.45,3.45,0,0,0-3.267,2.4L157.4,34.391,148.467,2.74a3.417,3.417,0,0,0-3.2-2.4H142a2.663,2.663,0,0,0-2.689,2.778,3.439,3.439,0,0,0,.156.956l12.4,41.631a3.568,3.568,0,0,0,3.267,2.4h2.889a3.368,3.368,0,0,0,3.267-2.4l10.558-32.14L182.563,45.7a3.5,3.5,0,0,0,3.356,2.4H188.7a3.416,3.416,0,0,0,3.223-2.4L203.767,4.074a3.742,3.742,0,0,0,.2-1.2A2.428,2.428,0,0,0,201.233.34Z" transform="translate(-139.31 0.416)" fill="#fff"/>
          <path id="Path_316" data-name="Path 316" d="M192.769,0C178.078,0,167.92,10.78,167.92,24.6c0,14.892,10.647,24.649,24.849,24.649S217.663,38.941,217.663,24.6,206.95,0,192.769,0Zm0,41.408c-8.935,0-15.981-7.246-15.981-16.8s6.824-16.781,15.981-16.781,16.025,6.912,16.025,16.781S202.794,41.408,192.769,41.408Z" transform="translate(-104.329)" fill="#fff"/>
          <path id="Path_317" data-name="Path 317" d="M227.356,44.222,215.509,28.663c3.934-1.356,9.2-5.468,9.2-13.669S220.4.28,207.4.28c-1.111,0-7.913.044-12,.133a2.519,2.519,0,0,0-2.534,2.534v42.7a2.577,2.577,0,0,0,2.534,2.534h3.334a2.577,2.577,0,0,0,2.534-2.534V30.286h5.868l11.936,16.181a4.321,4.321,0,0,0,3.267,1.711h3.134a2.442,2.442,0,0,0,2.467-2.445,2.185,2.185,0,0,0-.578-1.489ZM206.685,22.44h-5.468V8.237c2.267-.044,4.179-.133,5.757-.133,6.824,0,8.868,3.2,8.868,6.957C215.842,19.973,211.53,22.44,206.685,22.44Z" transform="translate(-73.836 0.342)" fill="#fff"/>
          <path id="Path_318" data-name="Path 318" d="M246.377,44.205l-17.67-21.627L245.021,4.064a1.938,1.938,0,0,0,.533-1.489,2.2,2.2,0,0,0-2.2-2.245h-3.067a4.5,4.5,0,0,0-3.334,1.578L219.394,23V2.864A2.577,2.577,0,0,0,216.86.33H213.5a2.577,2.577,0,0,0-2.534,2.534v42.7A2.577,2.577,0,0,0,213.5,48.1h3.356a2.577,2.577,0,0,0,2.534-2.534V23.446L237.62,46.473a4.475,4.475,0,0,0,3.356,1.623h3.6a2.357,2.357,0,0,0,2.312-2.4,2.317,2.317,0,0,0-.533-1.489Z" transform="translate(-51.694 0.403)" fill="#fff"/>
          <path id="Path_319" data-name="Path 319" d="M237.342,13.079c0-3.134,2.534-5.268,6.69-5.268a15.356,15.356,0,0,1,6.824,1.778,2.581,2.581,0,0,0,1.2.289,2.681,2.681,0,0,0,2.267-1.356l1.289-2.267a2.329,2.329,0,0,0,.333-1.156A2.422,2.422,0,0,0,254.7,2.944,21.4,21.4,0,0,0,243.3.01c-9.268,0-14.87,6-14.87,13.18,0,15.536,21.627,13.225,21.627,22.649,0,3.6-3,5.6-6.957,5.6-2.645,0-5.6-1.311-8.668-3.823a2.914,2.914,0,0,0-1.911-.778,2.222,2.222,0,0,0-1.711.778L228.54,40a2.265,2.265,0,0,0-.6,1.489,2.648,2.648,0,0,0,.867,1.978c4.712,4.379,8.935,5.8,14.114,5.8,8.935,0,15.981-5.468,15.981-13.514,0-15.892-21.649-12.758-21.649-22.649Z" transform="translate(-30.945 0.012)" fill="#fff"/>
        </g>
      </g>
    </g>
  </g>
</svg>
