<svg xmlns="http://www.w3.org/2000/svg" xmlns:xlink="http://www.w3.org/1999/xlink" width="444.82" height="475.351" viewBox="0 0 444.82 475.351">
  <defs>
    <linearGradient id="linear-gradient" x1="1.348" y1="-1.457" x2="4.593" y2="-8.945" gradientUnits="objectBoundingBox">
      <stop offset="0" stop-color="#09005d"/>
      <stop offset="1" stop-color="#1a0f91"/>
    </linearGradient>
    <linearGradient id="linear-gradient-2" y1="0.5" x2="1" y2="0.5" gradientUnits="objectBoundingBox">
      <stop offset="0" stop-color="#febbba"/>
      <stop offset="1" stop-color="#ff928e"/>
    </linearGradient>
    <linearGradient id="linear-gradient-3" x1="0" y1="0.5" x2="1" y2="0.5" xlink:href="#linear-gradient-2"/>
    <linearGradient id="linear-gradient-4" x1="2.252" y1="-0.791" x2="-2.568" y2="2.342" gradientUnits="objectBoundingBox">
      <stop offset="0" stop-color="#4042e2"/>
      <stop offset="1" stop-color="#4f52ff"/>
    </linearGradient>
    <linearGradient id="linear-gradient-5" x1="-63.053" y1="1.219" x2="-62.662" y2="0.33" xlink:href="#linear-gradient-2"/>
    <linearGradient id="linear-gradient-6" x1="1.312" y1="-4.69" x2="1.05" y2="-3.017" xlink:href="#linear-gradient-4"/>
    <linearGradient id="linear-gradient-7" x1="0.886" y1="-2.918" x2="0.734" y2="-1.558" xlink:href="#linear-gradient-4"/>
    <linearGradient id="linear-gradient-8" x1="-60.491" y1="0.277" x2="-62.751" y2="1.877" xlink:href="#linear-gradient-2"/>
    <linearGradient id="linear-gradient-9" x1="-248.598" y1="-0.685" x2="-253.15" y2="1.784" xlink:href="#linear-gradient-2"/>
    <linearGradient id="linear-gradient-10" x1="1090.761" y1="-0.443" x2="1102.752" y2="3.609" xlink:href="#linear-gradient-2"/>
    <linearGradient id="linear-gradient-11" x1="87.963" y1="-0.122" x2="88.897" y2="1.015" xlink:href="#linear-gradient-2"/>
    <linearGradient id="linear-gradient-12" x1="653.778" y1="0.261" x2="660.98" y2="2.695" xlink:href="#linear-gradient-2"/>
    <linearGradient id="linear-gradient-13" x1="19.385" y1="-27.873" x2="20.413" y2="-25.463" gradientUnits="objectBoundingBox">
      <stop offset="0" stop-color="#ff9085"/>
      <stop offset="1" stop-color="#fb6fbb"/>
    </linearGradient>
    <linearGradient id="linear-gradient-14" x1="-10.169" y1="8.469" x2="-10.973" y2="13.576" xlink:href="#linear-gradient-2"/>
  </defs>
  <g id="Asset_27" data-name="Asset 27" transform="translate(0.002 0.001)">
    <g id="Layer_2" data-name="Layer 2" transform="translate(-0.002 -0.002)">
      <g id="Layer_1" data-name="Layer 1">
        <path id="Path_194" data-name="Path 194" d="M395.746,443.533c-9.077,9.4-17.663,15.473-24.448,20.265-79.764,56.329-174.145,39.91-194.2,35.9-29.623-5.923-86.875-17.365-128.272-65.282-62.624-72.489-52.872-186.7-4.3-262.078,8.885-13.789,55.822-90.327,151.217-102.6,57.731-7.427,125.029,7.551,173.767,47.742,102.3,84.358,95.017,254.781,26.233,326.054Z" transform="translate(-2.163 -29.668)" fill="#fce6e8"/>
        <path id="Path_195" data-name="Path 195" d="M90.9,96.456a3.975,3.975,0,0,1,4.026-3.846H228.075c2.224,0,4.589,1.768,4.589,3.93V398.332a6.282,6.282,0,0,1-2.117,4.3,6.72,6.72,0,0,1-4.572,1.774l-134.612-.355a6.416,6.416,0,0,1-4.482-1.824,6.014,6.014,0,0,1-1.8-4.364L90.9,96.456Z" transform="translate(-37.173 -40.464)" fill="#fce6e8"/>
        <g id="Group_59" data-name="Group 59" transform="translate(68.222 68.098)">
          <path id="Path_196" data-name="Path 196" d="M231.22,126.374l43.559-.146-.017-5.287-43.508.13Z" transform="translate(-169.249 -120.94)" fill="#fc2433"/>
          <path id="Path_197" data-name="Path 197" d="M231.01,160.929l43.733-.2-.017-5.332-43.683.18Z" transform="translate(-169.157 -135.997)" fill="#fc2433"/>
          <path id="Path_198" data-name="Path 198" d="M230.79,195.765l43.919-.242-.017-5.383-43.868.231Z" transform="translate(-169.061 -151.176)" fill="#fc2433"/>
          <path id="Path_199" data-name="Path 199" d="M230.58,230.891l44.1-.293-.017-5.428-44.049.282Z" transform="translate(-168.97 -166.482)" fill="#fc2433"/>
          <path id="Path_200" data-name="Path 200" d="M230.36,266.311l44.285-.343-.017-5.467-44.234.327Z" transform="translate(-168.873 -181.919)" fill="#fc2433"/>
          <path id="Path_201" data-name="Path 201" d="M229.92,338.038l44.657-.445-.017-5.563-44.606.428Z" transform="translate(-168.681 -213.173)" fill="#fc2433"/>
          <path id="Path_202" data-name="Path 202" d="M229.25,447.916l45.22-.6-.017-5.7-45.169.586Z" transform="translate(-168.388 -261.052)" fill="#fc2433"/>
          <path id="Path_203" data-name="Path 203" d="M230.14,302.027l44.471-.394-.017-5.512-44.42.377Z" transform="translate(-168.777 -197.482)" fill="#fc2433"/>
          <path id="Path_204" data-name="Path 204" d="M229.7,374.354l44.842-.5-.017-5.608-44.792.479Z" transform="translate(-168.585 -228.999)" fill="#fc2433"/>
          <path id="Path_205" data-name="Path 205" d="M229.47,410.975l45.034-.546-.017-5.659L229.5,405.3Z" transform="translate(-168.484 -244.955)" fill="#fc2433"/>
          <path id="Path_206" data-name="Path 206" d="M229.02,485.163l45.417-.659-.017-5.755-45.366.648Z" transform="translate(-168.288 -277.28)" fill="#fc2433"/>
          <path id="Path_207" data-name="Path 207" d="M228.79,522.735l45.608-.715-.017-5.8-45.558.7Z" transform="translate(-168.187 -293.652)" fill="#fc2433"/>
          <path id="Path_208" data-name="Path 208" d="M228.55,560.632l45.811-.771-.017-5.85-45.755.755Z" transform="translate(-168.083 -310.164)" fill="#fc2433"/>
          <path id="Path_209" data-name="Path 209" d="M228.32,598.849l46.008-.828-.023-5.9-45.952.811Z" transform="translate(-167.982 -326.815)" fill="#fc2433"/>
          <path id="Path_210" data-name="Path 210" d="M129.8,126.7l43.829-.152.051-5.31-43.784.135Z" transform="translate(-124.935 -121.071)" fill="#fc2433"/>
          <path id="Path_211" data-name="Path 211" d="M129.17,161.366l44.009-.2.051-5.349-43.964.18Z" transform="translate(-124.66 -136.18)" fill="#fc2433"/>
          <path id="Path_212" data-name="Path 212" d="M128.53,196.312l44.195-.242.051-5.4-44.144.231Z" transform="translate(-124.38 -151.408)" fill="#fc2433"/>
          <path id="Path_213" data-name="Path 213" d="M127.89,231.552l44.381-.293.045-5.439-44.33.276Z" transform="translate(-124.101 -166.766)" fill="#fc2433"/>
          <path id="Path_214" data-name="Path 214" d="M127.24,267.088l44.567-.343.051-5.484-44.516.327Z" transform="translate(-123.817 -182.251)" fill="#fc2433"/>
          <path id="Path_215" data-name="Path 215" d="M125.93,339.05l44.944-.445.045-5.586-44.888.434Z" transform="translate(-123.244 -213.605)" fill="#fc2433"/>
          <path id="Path_216" data-name="Path 216" d="M123.92,449.3l45.518-.608.051-5.721-45.462.591Z" transform="translate(-122.366 -261.646)" fill="#fc2433"/>
          <path id="Path_217" data-name="Path 217" d="M126.59,302.919l44.752-.394.051-5.535-44.7.377Z" transform="translate(-123.533 -197.863)" fill="#fc2433"/>
          <path id="Path_218" data-name="Path 218" d="M125.27,375.486l45.13-.5.051-5.631-45.079.484Z" transform="translate(-122.956 -229.484)" fill="#fc2433"/>
          <path id="Path_219" data-name="Path 219" d="M124.6,412.238l45.321-.552.051-5.676-45.27.535Z" transform="translate(-122.663 -245.497)" fill="#fc2433"/>
          <path id="Path_220" data-name="Path 220" d="M123.24,486.676l45.715-.659.051-5.777-45.659.648Z" transform="translate(-122.069 -277.931)" fill="#fc2433"/>
          <path id="Path_221" data-name="Path 221" d="M122.55,524.377l45.912-.715.051-5.822-45.856.7Z" transform="translate(-121.767 -294.36)" fill="#fc2433"/>
          <path id="Path_222" data-name="Path 222" d="M121.86,562.4l46.109-.771.056-5.873-46.059.755Z" transform="translate(-121.466 -310.928)" fill="#fc2433"/>
          <path id="Path_223" data-name="Path 223" d="M121.16,600.757l46.312-.833.051-5.924-46.256.816Z" transform="translate(-121.16 -327.637)" fill="#fc2433"/>
        </g>
        <path id="Path_224" data-name="Path 224" d="M5.258,367.953c.056-2.466,2.59-4.493,5.693-4.493H128.226c3.142,0,6.233,2.134,6.233,4.634V591.422a4.466,4.466,0,0,1-1.943,3.2,6.931,6.931,0,0,1-4.172,1.323L5.726,595.685a6.608,6.608,0,0,1-4.088-1.357A4.148,4.148,0,0,1,0,591.051L5.258,367.959Z" transform="translate(0.002 -158.808)" fill="#fce6e8"/>
        <g id="Group_69" data-name="Group 69" transform="translate(14.5 217.327)" opacity="0.47">
          <g id="Group_60" data-name="Group 60" transform="translate(2.269)">
            <path id="Path_225" data-name="Path 225" d="M162.73,399.613l33.407-.034.265-13.609h-33.44Z" transform="translate(-87.871 -385.97)" fill="#fc2433"/>
            <path id="Path_226" data-name="Path 226" d="M96.22,399.607l33.373-.039.231-13.6H96.417Z" transform="translate(-58.81 -385.97)" fill="#fc2433"/>
            <path id="Path_227" data-name="Path 227" d="M29.78,399.6l33.339-.034.2-13.592H29.938Z" transform="translate(-29.78 -385.97)" fill="#fc2433"/>
          </g>
          <g id="Group_61" data-name="Group 61" transform="translate(1.982 24.533)">
            <path id="Path_228" data-name="Path 228" d="M161.98,443.094l33.35.017.265-13.519-33.378-.011Z" transform="translate(-87.256 -429.558)" fill="#fc2433"/>
            <path id="Path_229" data-name="Path 229" d="M95.59,443.068l33.317.017.231-13.514-33.35-.011Z" transform="translate(-58.248 -429.549)" fill="#fc2433"/>
            <path id="Path_230" data-name="Path 230" d="M29.27,443.037l33.283.017.191-13.5-33.317-.011Z" transform="translate(-29.27 -429.54)" fill="#fc2433"/>
          </g>
          <g id="Group_62" data-name="Group 62" transform="translate(1.695 48.812)">
            <path id="Path_231" data-name="Path 231" d="M161.24,486.213l33.294.028.265-13.474-33.328-.017Z" transform="translate(-86.645 -472.699)" fill="#fc2433"/>
            <path id="Path_232" data-name="Path 232" d="M94.97,486.163l33.26.028.225-13.469L95.167,472.7Z" transform="translate(-57.69 -472.678)" fill="#fc2433"/>
            <path id="Path_233" data-name="Path 233" d="M28.76,486.112l33.226.028.191-13.457-33.26-.023Z" transform="translate(-28.76 -472.66)" fill="#fc2433"/>
          </g>
          <g id="Group_63" data-name="Group 63" transform="translate(1.408 73.007)">
            <path id="Path_234" data-name="Path 234" d="M160.51,529.183l33.232.034.265-13.424-33.266-.034Z" transform="translate(-86.039 -515.687)" fill="#fc2433"/>
            <path id="Path_235" data-name="Path 235" d="M94.35,529.112l33.2.039.231-13.424L94.541,515.7Z" transform="translate(-57.131 -515.661)" fill="#fc2433"/>
            <path id="Path_236" data-name="Path 236" d="M28.25,529.037l33.17.039.191-13.412-33.2-.034Z" transform="translate(-28.25 -515.63)" fill="#fc2433"/>
          </g>
          <g id="Group_64" data-name="Group 64" transform="translate(1.126 97.123)">
            <path id="Path_237" data-name="Path 237" d="M159.77,572l33.181.051.259-13.378L160,558.63Z" transform="translate(-85.434 -558.534)" fill="#fc2433"/>
            <path id="Path_238" data-name="Path 238" d="M93.73,571.907l33.142.051.225-13.373-33.176-.045Z" transform="translate(-56.579 -558.495)" fill="#fc2433"/>
            <path id="Path_239" data-name="Path 239" d="M27.75,571.816l33.108.051L61.05,558.5l-33.142-.039Z" transform="translate(-27.75 -558.46)" fill="#fc2433"/>
          </g>
          <g id="Group_65" data-name="Group 65" transform="translate(0.845 121.149)">
            <path id="Path_240" data-name="Path 240" d="M159.04,614.678l33.119.056.265-13.333-33.153-.051Z" transform="translate(-84.834 -601.226)" fill="#fc2433"/>
            <path id="Path_241" data-name="Path 241" d="M93.11,614.562l33.086.056.225-13.322L93.3,601.24Z" transform="translate(-56.027 -601.178)" fill="#fc2433"/>
            <path id="Path_242" data-name="Path 242" d="M27.25,614.447l33.052.062.191-13.322-33.086-.056Z" transform="translate(-27.25 -601.13)" fill="#fc2433"/>
          </g>
          <g id="Group_66" data-name="Group 66" transform="translate(0.563 145.096)">
            <path id="Path_243" data-name="Path 243" d="M158.31,657.2l33.063.068.259-13.288-33.091-.062Z" transform="translate(-84.233 -643.774)" fill="#fc2433"/>
            <path id="Path_244" data-name="Path 244" d="M92.5,657.067l33.029.068.225-13.277-33.063-.068Z" transform="translate(-55.479 -643.717)" fill="#fc2433"/>
            <path id="Path_245" data-name="Path 245" d="M26.75,656.931l33,.068.186-13.271L26.9,643.66Z" transform="translate(-26.75 -643.66)" fill="#fc2433"/>
          </g>
          <g id="Group_67" data-name="Group 67" transform="translate(0.282 168.964)">
            <path id="Path_246" data-name="Path 246" d="M157.59,699.582l33.007.085.259-13.243-33.041-.073Z" transform="translate(-83.637 -686.181)" fill="#fc2433"/>
            <path id="Path_247" data-name="Path 247" d="M91.88,699.426l32.973.079.225-13.232L92.071,686.2Z" transform="translate(-54.926 -686.116)" fill="#fc2433"/>
            <path id="Path_248" data-name="Path 248" d="M26.25,699.271l32.939.079.186-13.226L26.4,686.05Z" transform="translate(-26.25 -686.05)" fill="#fc2433"/>
          </g>
          <g id="Group_68" data-name="Group 68" transform="translate(0 192.748)">
            <path id="Path_249" data-name="Path 249" d="M156.86,741.817l32.951.09.259-13.193-32.979-.084Z" transform="translate(-83.037 -728.439)" fill="#fc2433"/>
            <path id="Path_250" data-name="Path 250" d="M91.27,741.641l32.917.09.225-13.187-32.951-.084Z" transform="translate(-54.378 -728.364)" fill="#fc2433"/>
            <path id="Path_251" data-name="Path 251" d="M25.75,741.466l32.883.09.186-13.181L25.9,728.29Z" transform="translate(-25.75 -728.29)" fill="#fc2433"/>
          </g>
        </g>
        <path id="Path_252" data-name="Path 252" d="M195.009,347.913c-9.572-30.051-28.091-54-50.023-68.074a89.207,89.207,0,0,1-38.964-54.826q-.828-3.573-1.965-7.151c-11.509-36.143-43.08-58.356-70.518-49.617S-6.8,213.357,4.7,249.5a88.684,88.684,0,0,0,9.369,20.276,89.59,89.59,0,0,1,12.494,65.158c-4.015,20.107-2.928,42.748,4.251,65.276,10.7,33.6,32.59,59.572,57.934,72.652A88.031,88.031,0,0,1,114.142,492.5c11.9,13.356,28.66,19.634,44.065,14.73,16.616-5.293,27-22.117,27.742-41.751a93.923,93.923,0,0,1,7.292-32.292c10.051-24.3,11.447-54.882,1.768-85.265Z" transform="translate(-0.216 -72.68)" fill="#193051"/>
        <path id="Path_253" data-name="Path 253" d="M97.212,232.56c11.194,22.742,21.639,45.828,31.847,69.026,2.556,5.8,5.017,11.633,7.494,17.466l3.716,8.744,3.643,8.778c2.4,5.862,4.893,11.689,7.235,17.573l7.021,17.663c4.527,11.836,9.161,23.632,13.469,35.552,2.162,5.957,4.443,11.869,6.481,17.872l6.2,17.967c8.029,24.043,15.456,48.3,21.633,72.883l-1.064.276-5.327-18.215-1.323-4.555-1.436-4.521-2.889-9.037-2.872-9.043c-.952-3.018-2.016-6-3.018-9-2.044-5.985-4.043-11.988-6.126-17.962-8.485-23.84-17.292-47.562-26.588-71.1-4.741-11.734-9.375-23.508-14.195-35.208l-3.592-8.784-3.666-8.756c-2.438-5.839-4.882-11.678-7.382-17.489q-7.348-17.509-14.961-34.9-7.525-17.432-15.31-34.752l.991-.467Z" transform="translate(-42.037 -101.613)" fill="#fce6e8" opacity="0.56"/>
        <path id="Path_254" data-name="Path 254" d="M348.544,215.5c-4.471-32.815-19.257-60.946-39.33-79.482A94,94,0,0,1,278.9,72.246q-.211-3.843-.738-7.753C272.778,25.016,244.231-3.683,214.4.382S164.743,39.74,170.126,79.211a93.353,93.353,0,0,0,6.019,22.669c9.1,22.275,9.848,47.2,1.188,69.662-7.742,20.073-10.676,43.688-7.325,68.288,5,36.695,22.894,67.528,46.661,85.648a92.467,92.467,0,0,1,22.635,24.91c9.859,15.969,26.008,25.5,42.753,23.221,18.069-2.461,31.779-17.984,36.07-38.159a98.7,98.7,0,0,1,13.305-32.078c14.713-23.316,21.633-54.7,17.112-87.877Z" transform="translate(-73.683 0.002)" fill="#193051"/>
        <path id="Path_255" data-name="Path 255" d="M277.774,72.72c7.455,25.552,14.077,51.329,20.434,77.168,1.594,6.458,3.08,12.945,4.589,19.426l2.264,9.718,2.179,9.741c1.43,6.5,2.945,12.979,4.3,19.493l4.065,19.544c2.545,13.063,5.2,26.1,7.5,39.212,1.16,6.554,2.449,13.08,3.474,19.657l3.17,19.713c3.964,26.323,7.264,52.759,9.223,79.308l-1.143.1-2.219-19.809-.546-4.949-.67-4.938-1.357-9.87-1.334-9.876c-.439-3.294-1-6.565-1.5-9.854-1.03-6.565-2.016-13.131-3.091-19.69-4.471-26.194-9.291-52.331-14.645-78.367-2.776-13-5.445-26.014-8.311-38.992l-2.123-9.741-2.207-9.718c-1.47-6.481-2.934-12.962-4.465-19.431q-4.434-19.443-9.155-38.812c-3.086-12.928-6.3-25.833-9.538-38.722l1.1-.3Z" transform="translate(-120.886 -31.773)" fill="#051228"/>
        <rect id="Rectangle_73" data-name="Rectangle 73" width="267.777" height="359.263" rx="25.9" transform="translate(147.884 81.803)" fill="#051228"/>
        <rect id="Rectangle_74" data-name="Rectangle 74" width="201.498" height="257.962" rx="21.6" transform="translate(180.739 135.773)" fill="#193051"/>
        <rect id="Rectangle_75" data-name="Rectangle 75" width="170.901" height="218.796" rx="6.48" transform="translate(196.116 156.994)" fill="#051228"/>
        <circle id="Ellipse_12" data-name="Ellipse 12" cx="8.012" cy="8.012" r="8.012" transform="translate(273.273 101.336)" fill="url(#linear-gradient)"/>
        <path id="Path_256" data-name="Path 256" d="M500.461,423.869,397.4,425.58c-7.844.13-14.223,6.228-14.223,13.621v64.9c0,7.393,6.379,13.131,14.223,12.815l103.058-4.138a13.817,13.817,0,0,0,13.384-13.474V436.583a12.9,12.9,0,0,0-13.384-12.714Z" transform="translate(-167.424 -185.202)" fill="#fce6e8"/>
        <path id="Path_257" data-name="Path 257" d="M518.512,359.288a5.467,5.467,0,0,1-5.653-5.383V339.7c0-14.251-12.055-25.811-26.976-25.766l-33.576.1c-15.3.045-27.849,11.943-27.849,26.526v14.538a5.878,5.878,0,0,1-5.94,5.681,5.688,5.688,0,0,1-5.957-5.524V340.668c0-20.816,17.934-37.748,39.747-37.748h33.576c21.2,0,38.271,16.447,38.271,36.667v14.161a5.652,5.652,0,0,1-5.636,5.535Z" transform="translate(-180.261 -132.356)" fill="#fce6e8"/>
        <path id="Path_258" data-name="Path 258" d="M508.848,478.148c0-7.213-6.3-12.877-13.953-12.354-6.768.462-12.365,5.878-12.731,12.354a12.216,12.216,0,0,0,6.672,11.56,4.53,4.53,0,0,1,2.325,4.848l-2.945,16.515a3.337,3.337,0,0,0,3.542,3.868l7.562-.27a3.6,3.6,0,0,0,3.519-4.11L499.9,494.2a4.852,4.852,0,0,1,2.455-4.961,13.018,13.018,0,0,0,6.5-11.092Z" transform="translate(-210.665 -203.506)" fill="#fc2433"/>
        <path id="Path_259" data-name="Path 259" d="M147.239,773.438a1.581,1.581,0,0,0-.045-.428c-2.14-8.474-12.742-13.75-12.742-13.75l-4.2.332c-2.416,7.466-2.106,12.05-1.717,14.088.011.056.028.113.045.169a99.734,99.734,0,0,0,18.666-.405Z" transform="translate(-56.044 -331.747)" fill="#fc2433"/>
        <path id="Path_260" data-name="Path 260" d="M128.8,784.845a1.822,1.822,0,0,0,1.334,1.346c4.932,1.036,12.77.2,16.064-.225a1.528,1.528,0,0,0,1.267-1.526,99.725,99.725,0,0,1-18.666.405Z" transform="translate(-56.276 -342.749)" fill="#fc7581"/>
        <path id="Path_261" data-name="Path 261" d="M128.78,748.73l1.779,8.57a1.4,1.4,0,0,0,1.2,1.154,11.786,11.786,0,0,0,2.759-.045,1.765,1.765,0,0,0,1.4-2.072l-1.239-7.607Z" transform="translate(-56.268 -327.146)" fill="url(#linear-gradient-2)"/>
        <path id="Path_262" data-name="Path 262" d="M187.853,784.053c-4.64-.13-7.044-.676-8.283-1.182,0,.462,0,.929.017,1.419a.922.922,0,0,0,.873.935l25.49-.163a1.162,1.162,0,0,0,.935-1.695c-3.345.276-11.852.9-19.032.693Z" transform="translate(-78.46 -342.063)" fill="#fc7581"/>
        <path id="Path_263" data-name="Path 263" d="M206.884,774.053a.9.9,0,0,0-.1-.191c-2.252-3.148-7.984-9.409-19.313-12.123l-5.434-.169s-2.421,4.206-2.466,12c1.239.507,3.643,1.053,8.283,1.182,7.173.2,15.687-.417,19.032-.693Z" transform="translate(-78.46 -332.756)" fill="#fc2433"/>
        <path id="Path_264" data-name="Path 264" d="M181.73,746.012c.084.4,1.216,6.5,1.655,8.863a1.176,1.176,0,0,0,1.064,1,12.54,12.54,0,0,0,3.722-.293,1.609,1.609,0,0,0,1.115-1.689l-.608-9.645-6.948,1.757Z" transform="translate(-79.403 -325.188)" fill="url(#linear-gradient-3)"/>
        <path id="Path_265" data-name="Path 265" d="M147.624,540.809S155.1,592.183,160.5,653.315a2.328,2.328,0,0,1-1.926,2.365,28.157,28.157,0,0,1-6.075.7,2.248,2.248,0,0,1-2.145-1.881c-1.836-10.777-14.955-68.626-18.4-81.357,0,0-3.953,54.082-2.691,82.14a1.332,1.332,0,0,1-1.171,1.385,22.3,22.3,0,0,1-4.876-.011,1.788,1.788,0,0,1-1.588-1.509c-1.312-9.122-8.846-63.418-8.525-102.534.017-2.207,2.59-20.327,2.59-20.327l31.937,8.53Z" transform="translate(-49.413 -232.576)" fill="#051228"/>
        <path id="Path_266" data-name="Path 266" d="M179.56,393.99l1,26.881a73.953,73.953,0,0,0,8.125,2.309c1.61-5.191,5.163-11.56,8.069-16.3C186.075,403.112,179.56,393.99,179.56,393.99Z" transform="translate(-78.455 -172.147)" fill="url(#linear-gradient-4)"/>
        <path id="Path_267" data-name="Path 267" d="M113.949,477.606a2.116,2.116,0,0,1-1.391-1.779c-1-9.645-5.805-69.448,24.583-94.049,0,0,1.746-4.561,16.07,6.65s6.655,22.956,3.226,39.161c-4.15,19.606-11.43,35.636-8.209,47.7a1.673,1.673,0,0,1-1.025,2,47.488,47.488,0,0,1-33.255.315Z" transform="translate(-48.796 -166.41)" fill="#fc2433"/>
        <path id="Path_268" data-name="Path 268" d="M168.525,350.656c-.011.85-12.145,18.086-12.145,18.086s2.179,4.291,12.579,7.77l8.975-18.457-9.409-7.4Z" transform="translate(-68.327 -153.211)" fill="url(#linear-gradient-5)"/>
        <path id="Path_269" data-name="Path 269" d="M155.978,441.551a.4.4,0,0,1-.22-.068c-9.7-6.548-14.257-17.123-14.3-17.23a.4.4,0,0,1,.208-.518.393.393,0,0,1,.518.208c.045.1,4.521,10.467,14.015,16.881a.394.394,0,0,1-.22.721Z" transform="translate(-61.793 -185.13)" fill="url(#linear-gradient-6)"/>
        <path id="Path_270" data-name="Path 270" d="M173.249,412.352a.389.389,0,0,1-.332-.18c-.028-.045-2.99-4.657-8.632-14.758-1.734-3.108-4.015-5.073-6.774-5.845-4.572-1.278-8.981,1.177-9.026,1.2a.392.392,0,1,1-.389-.681,13.746,13.746,0,0,1,9.617-1.273c2.973.828,5.417,2.922,7.258,6.222,5.625,10.073,8.575,14.668,8.6,14.713a.394.394,0,0,1-.118.546.378.378,0,0,1-.214.062Z" transform="translate(-64.622 -170.582)" fill="url(#linear-gradient-7)"/>
        <path id="Path_271" data-name="Path 271" d="M181.48,333.12s4.319,9.921,4.606,15.124,1.413,8.587-4.606,9.634-11.092-1.948-13.84-7.134c0,0-4.3-7.99-3.339-11.261s17.179-6.357,17.179-6.357Z" transform="translate(-71.727 -145.551)" fill="url(#linear-gradient-8)"/>
        <path id="Path_272" data-name="Path 272" d="M163.7,338.605l.343-.152a.83.83,0,0,0,.405-1.137c-.85-1.638-2.506-5.4-.366-6.273,2.753-1.132,13.666-3.356,16.025-7.23a7.207,7.207,0,0,0-2.753-9.893.416.416,0,0,0-.541.175l-.253.473a.408.408,0,0,1-.755-.079h0a.409.409,0,0,0-.738-.107c-.726,1.16-2.68,3.035-7.905,4-7.427,1.368-12.337,4.375-12.461,9.51a.408.408,0,0,1-.631.338c-.546-.332-1.425-.49-2.6.5-2.038,1.717-1.2,6.166,3.266,9.82a.406.406,0,0,1-.017.653c-.811.529-2.021,1.785,1.109,3.457a10.576,10.576,0,0,0,6.588,1.436.409.409,0,0,0,.332-.49l-.991-4.51a.41.41,0,0,1,.4-.5h1.548Z" transform="translate(-65.723 -137.145)" fill="#051228"/>
        <path id="Path_273" data-name="Path 273" d="M170.122,355.7s-1.65-6.334-4.488-4.561,1.475,7.1,3.756,7.337Z" transform="translate(-71.962 -153.286)" fill="url(#linear-gradient-9)"/>
        <path id="Path_274" data-name="Path 274" d="M271.775,382.553s-2.162-3.834-2.027-5.7-1.025-4.6.214-4.4,1.492.039,1.824,2.275S276.02,386.737,271.775,382.553Z" transform="translate(-117.703 -162.732)" fill="url(#linear-gradient-10)"/>
        <path id="Path_275" data-name="Path 275" d="M240.016,379.556l-.051,7.663c-14.651,15.817-26.509,16.751-36.126,13.35-2.905,4.735-6.458,11.109-8.069,16.3,39.122,8.626,48.333-27.342,48.333-27.342,5.3-2.2,6.368-3.48,6.137-4.916L240.01,379.55Z" transform="translate(-85.538 -165.838)" fill="url(#linear-gradient-11)"/>
        <path id="Path_276" data-name="Path 276" d="M289.015,363c-1.25-.507-3.7-5.175-4.167-3.637s.2,3.637,0,4.291-3.249,8.159-2.641,9.831c.439,1.2,2.86,1.025,3.232,3a1.257,1.257,0,0,0,2.5,0c.051-.265,2.32-12.967,1.07-13.48Z" transform="translate(-123.271 -156.881)" fill="url(#linear-gradient-12)"/>
        <path id="Path_277" data-name="Path 277" d="M220.123,320.816a39.649,39.649,0,0,0,63.857,45.479l67.889,34.324a3.69,3.69,0,0,0,3.553-.124l6.639-3.953c.113-.068.22-.141.327-.22l.084-.068c.079-.062.152-.124.225-.191.023-.023.051-.045.073-.068a2.752,2.752,0,0,0,.248-.27h0a3.7,3.7,0,0,0,.58-3.711L358.2,378.49a3.7,3.7,0,0,0-1.762-1.926l-6.8-3.44-1.8,3.559L342,373.727l1.8-3.559-5.467-2.765-1.655,3.271-7.1-3.587,1.655-3.271-2.646-1.34-.85,1.684-5.952-3.007.85-1.684-4.628-2.342-1.8,3.559-3.305-1.672,1.8-3.559-2.866-1.447-1.8,3.559-5.732-2.9,1.8-3.559-8.057-4.071h0l-3.452-1.745a39.65,39.65,0,0,0-74.482-24.471Zm23.131,2.7a8.029,8.029,0,1,1-10.788,3.542A8.029,8.029,0,0,1,243.253,323.518Z" transform="translate(-94.311 -130.668)" fill="#fc7581"/>
        <path id="Path_278" data-name="Path 278" d="M318.063,358.97l32.185,16.273-1.8,3.559,5.732,2.9,1.8-3.559,2.866,1.447-1.8,3.559,3.305,1.672,1.8-3.559,4.628,2.342-.85,1.684,5.952,3.007.85-1.684,2.646,1.34-1.655,3.271,7.1,3.587,1.655-3.271,5.467,2.765-1.8,3.559,5.839,2.956,1.8-3.559,6.8,3.44a3.681,3.681,0,0,1,1.762,1.926l5.394,13.525a3.7,3.7,0,0,1-1.537,4.538l-6.638,3.953a3.69,3.69,0,0,1-3.553.124L314.06,383.328l4.009-24.353Z" transform="translate(-137.223 -156.846)" fill="#fc7581"/>
        <path id="Path_279" data-name="Path 279" d="M239.781,370.457a39.643,39.643,0,1,0-17.489-53.266A39.64,39.64,0,0,0,239.781,370.457Zm-1.6-36.239a8.029,8.029,0,1,1,10.788-3.542A8.029,8.029,0,0,1,238.177,334.218Z" transform="translate(-95.259 -129.082)" fill="url(#linear-gradient-13)"/>
        <path id="Path_280" data-name="Path 280" d="M286.145,362.666l67.889,34.324a3.69,3.69,0,0,0,3.553-.124l6.639-3.953a3.673,3.673,0,0,0,1.762-2.7c-6.188-6.706-65-32.387-67.2-37.675-.783-1.881-.918-4.73,1.43-9.144l-3.452-1.746A39.647,39.647,0,1,0,286.14,362.66Zm-40.726-42.782a8.029,8.029,0,1,1-10.788,3.542A8.029,8.029,0,0,1,245.419,319.884Z" transform="translate(-95.254 -129.078)" fill="#fc2433"/>
        <path id="Path_281" data-name="Path 281" d="M249.335,369.555a31.862,31.862,0,1,0-14.06-42.81A31.862,31.862,0,0,0,249.335,369.555Zm-5.118-29.3a8.029,8.029,0,1,1,10.788-3.542A8.029,8.029,0,0,1,244.217,340.259Z" transform="translate(-101.299 -135.122)" fill="#fce6e8"/>
        <path id="Path_282" data-name="Path 282" d="M167.266,442.371s37.331,12.5,58.215-3.4a5.935,5.935,0,0,1,4.538-1.154l7.979,1.3a6.378,6.378,0,0,0,7.258-4.938,13.489,13.489,0,0,0,.191-5.738l-15.062-.907.428-1.954s-6.655,1.627-6.791,6.836c0,0-15.614,10.231-44.094-5.648,0,0-11.092,8.677-12.669,15.6Z" transform="translate(-73.081 -185.95)" fill="url(#linear-gradient-14)"/>
        <g id="Group_70" data-name="Group 70" transform="translate(281.631 2.174)" opacity="0.47">
          <path id="Path_283" data-name="Path 283" d="M608.261,70.937a1.578,1.578,0,0,1-1.509-1.639c.068-1.689.068-3.407-.011-5.1a1.577,1.577,0,0,1,1.475-1.644h.028a1.578,1.578,0,0,1,1.644,1.5c.079,1.785.085,3.592.011,5.372a1.577,1.577,0,0,1-1.47,1.509h-.163ZM605.806,55.96c-.3-1.672-.687-3.345-1.132-4.972a1.573,1.573,0,0,1,3.035-.828c.467,1.717.867,3.48,1.188,5.237a1.578,1.578,0,0,1-1.267,1.836c-.062.011-.124.017-.186.023a1.577,1.577,0,0,1-1.65-1.289Zm-3.857-12.8c-.67-1.554-1.413-3.1-2.213-4.595a1.577,1.577,0,1,1,2.781-1.486c.845,1.571,1.627,3.2,2.331,4.842a1.577,1.577,0,0,1-2.9,1.239Zm-6.627-11.61c-1-1.368-2.072-2.708-3.187-3.986a1.576,1.576,0,0,1,2.376-2.072c1.171,1.346,2.3,2.759,3.35,4.2a1.575,1.575,0,0,1-.343,2.2,1.546,1.546,0,0,1-.828.3,1.578,1.578,0,0,1-1.374-.642ZM586.273,21.7c-1.278-1.109-2.618-2.179-3.987-3.181a1.576,1.576,0,0,1,1.858-2.545c1.441,1.053,2.855,2.179,4.195,3.35a1.577,1.577,0,1,1-2.066,2.382Zm-11-7.6c-1.492-.8-3.035-1.548-4.595-2.224a1.576,1.576,0,1,1,1.25-2.894c1.639.709,3.266,1.492,4.837,2.337a1.576,1.576,0,1,1-1.492,2.776Zm-58.491-.732a1.571,1.571,0,0,1,.648-2.128c1.571-.839,3.2-1.622,4.848-2.32a1.574,1.574,0,1,1,1.239,2.894c-1.56.664-3.108,1.408-4.6,2.207a1.55,1.55,0,0,1-.642.18A1.581,1.581,0,0,1,516.785,13.37Zm46.087-4.234c-1.633-.45-3.305-.833-4.972-1.143a1.575,1.575,0,1,1,.574-3.1c1.751.327,3.514.726,5.231,1.2a1.576,1.576,0,0,1-.321,3.091,1.5,1.5,0,0,1-.518-.056ZM529.415,7.987a1.576,1.576,0,0,1,1.109-1.931c1.717-.467,3.485-.861,5.242-1.182a1.574,1.574,0,0,1,.563,3.1c-1.667.3-3.345.681-4.978,1.12a1.533,1.533,0,0,1-.315.051,1.575,1.575,0,0,1-1.616-1.16Zm20.253-.923c-1.689-.073-3.406-.073-5.1,0a1.576,1.576,0,0,1-.163-3.148h.034c1.785-.079,3.592-.073,5.372,0a1.576,1.576,0,0,1,.034,3.148h-.169Z" transform="translate(-507.35 -3.859)" fill="#fc2433"/>
          <path id="Path_284" data-name="Path 284" d="M501.849,29.374a1.536,1.536,0,0,0,.878-.338c.636-.507,1.3-1,1.954-1.486A1.576,1.576,0,0,0,502.823,25c-.693.507-1.385,1.03-2.055,1.565a1.574,1.574,0,0,0,1.081,2.8Z" transform="translate(-500.173 -12.966)" fill="#fc2433"/>
        </g>
        <g id="Group_71" data-name="Group 71" transform="translate(258.441 55.11)" opacity="0.47">
          <path id="Path_285" data-name="Path 285" d="M461.066,103.519a1.573,1.573,0,0,0,1.464-1.419c.079-.811.174-1.627.281-2.438a1.574,1.574,0,1,0-3.119-.428c-.118.85-.22,1.717-.3,2.568a1.574,1.574,0,0,0,1.419,1.717A1.27,1.27,0,0,0,461.066,103.519Z" transform="translate(-459.162 -97.874)" fill="#fc2433"/>
          <path id="Path_286" data-name="Path 286" d="M522.683,179.2a1.577,1.577,0,0,1-.045-3.153c1.655-.023,3.339-.118,5.017-.282a1.576,1.576,0,1,1,.31,3.136c-.726.073-1.453.13-2.173.175-1.03.068-2.072.107-3.1.118Zm11.847-2.872a1.575,1.575,0,0,1,1.171-1.9c1.627-.383,3.249-.845,4.831-1.363a1.576,1.576,0,0,1,.98,3c-1.667.546-3.378,1.03-5.09,1.436a1.5,1.5,0,0,1-.265.039,1.578,1.578,0,0,1-1.633-1.211Zm-20.417,2.41c-1.74-.214-3.491-.507-5.214-.867a1.574,1.574,0,0,1,.648-3.08c1.633.343,3.3.619,4.949.822a1.576,1.576,0,0,1-.1,3.136,1.7,1.7,0,0,1-.293-.011Zm33.249-6.627a1.573,1.573,0,0,1,.726-2.106c1.5-.732,2.984-1.537,4.414-2.393a1.577,1.577,0,0,1,1.616,2.708c-1.509.9-3.069,1.746-4.651,2.517a1.593,1.593,0,0,1-.591.158,1.573,1.573,0,0,1-1.515-.884Zm-46.718,3.418c-1.65-.591-3.294-1.261-4.893-1.993a1.576,1.576,0,0,1,1.312-2.866c1.52.693,3.08,1.329,4.645,1.892a1.577,1.577,0,0,1-.434,3.057A1.634,1.634,0,0,1,500.645,175.529Zm-12.432-6.081c-1.481-.94-2.945-1.954-4.341-3.012a1.575,1.575,0,1,1,1.9-2.511c1.329,1.008,2.714,1.971,4.127,2.86a1.577,1.577,0,0,1,.49,2.173,1.576,1.576,0,0,1-2.173.484ZM477.4,160.8c-1.244-1.239-2.449-2.551-3.581-3.885a1.574,1.574,0,1,1,2.4-2.033c1.076,1.273,2.224,2.511,3.4,3.694a1.575,1.575,0,0,1,0,2.23,1.606,1.606,0,0,1-1.013.462,1.565,1.565,0,0,1-1.211-.456ZM468.724,150c-.94-1.481-1.83-3.024-2.646-4.578a1.574,1.574,0,1,1,2.787-1.464c.771,1.475,1.616,2.939,2.511,4.347a1.575,1.575,0,0,1-2.658,1.689Zm-6.092-12.449c-.591-1.65-1.121-3.345-1.571-5.045a1.575,1.575,0,0,1,3.046-.805c.428,1.61.929,3.226,1.492,4.792a1.58,1.58,0,0,1-.952,2.016,1.652,1.652,0,0,1-.434.09,1.576,1.576,0,0,1-1.582-1.042Zm-3.2-13.468c-.158-1.284-.281-2.584-.366-3.868-.028-.467-.056-.929-.073-1.4a1.575,1.575,0,1,1,3.148-.13c.017.439.039.884.068,1.329.079,1.222.191,2.461.349,3.677a1.576,1.576,0,0,1-1.368,1.757.5.5,0,0,0-.1.011A1.576,1.576,0,0,1,459.428,124.082Z" transform="translate(-458.988 -106.308)" fill="#fc2433"/>
          <path id="Path_287" data-name="Path 287" d="M637.648,199.724a1.6,1.6,0,0,0,.884-.343c.664-.535,1.334-1.092,1.982-1.655a1.576,1.576,0,1,0-2.072-2.376c-.619.541-1.25,1.07-1.881,1.577a1.574,1.574,0,0,0,1.087,2.8Z" transform="translate(-536.318 -140.294)" fill="#fc2433"/>
        </g>
        <path id="Path_288" data-name="Path 288" d="M575.217,101.025a.735.735,0,0,0,0-.856l-5.191-7.3a39.015,39.015,0,0,0,2.866-12.314l7.872-4.262a.738.738,0,0,0,.377-.766l-1.757-10.6a.742.742,0,0,0-.6-.608l-8.829-1.492a39.043,39.043,0,0,0-6.689-10.732L565.82,43.5a.744.744,0,0,0-.276-.811l-8.739-6.256a.736.736,0,0,0-.856,0l-7.3,5.191a39.015,39.015,0,0,0-12.314-2.866L532.07,30.89a.738.738,0,0,0-.766-.377l-10.6,1.757a.742.742,0,0,0-.608.6L518.6,41.7a39.042,39.042,0,0,0-10.732,6.689l-8.587-2.556a.744.744,0,0,0-.811.276l-6.256,8.739a.736.736,0,0,0,0,.856l5.191,7.3a39.016,39.016,0,0,0-2.866,12.314l-7.872,4.262a.738.738,0,0,0-.377.766l1.757,10.6a.742.742,0,0,0,.6.608l8.829,1.492a39.041,39.041,0,0,0,6.689,10.732l-2.556,8.587a.744.744,0,0,0,.276.811l8.739,6.256a.736.736,0,0,0,.856,0l7.3-5.191a39.015,39.015,0,0,0,12.314,2.866l4.262,7.872a.738.738,0,0,0,.766.377l10.6-1.757a.742.742,0,0,0,.608-.6l1.492-8.829a39.041,39.041,0,0,0,10.732-6.689l8.587,2.556a.744.744,0,0,0,.811-.276l6.256-8.739Z" transform="translate(-212.473 -13.327)" fill="#fc2433"/>
        <path id="Path_289" data-name="Path 289" d="M561.241,117.123a10.789,10.789,0,1,1,1.588.017,10.7,10.7,0,0,1-1.588-.017Zm-4.459-17.083a8.282,8.282,0,1,0,6.036-1.931,8.127,8.127,0,0,0-1.227-.011,8.238,8.238,0,0,0-4.809,1.943Z" transform="translate(-240.896 -41.75)" fill="#fce6e8"/>
        <path id="Path_290" data-name="Path 290" d="M551.231,120.375a26.351,26.351,0,0,0,2.714-.31h0c.287-.045.569-.1.85-.158a26.317,26.317,0,0,0,4.093-1.16.388.388,0,0,0,.056-.023c.051-.017.1-.039.152-.056l.3-.118a.633.633,0,0,0,.4-.625.476.476,0,0,0-.045-.191.636.636,0,0,0-.816-.355,25.317,25.317,0,0,1-34.291-19.386c-.141-.861-.242-1.729-.3-2.59a25.307,25.307,0,0,1,50.225-5.693c.141.85.236,1.7.293,2.556a25.154,25.154,0,0,1-1.706,10.85.65.65,0,0,0-.045.27.631.631,0,0,0,1.216.191,26.506,26.506,0,0,0,1.791-11.391,26.9,26.9,0,0,0-.3-2.68,26.567,26.567,0,0,0-52.725,5.98c.056.907.163,1.813.31,2.714a26.564,26.564,0,0,0,27.838,22.168Z" transform="translate(-228.532 -29.4)" fill="#fce6e8"/>
        <g id="Group_72" data-name="Group 72" transform="translate(388.155 55.237)" opacity="0.47">
          <path id="Path_291" data-name="Path 291" d="M778.82,187.152a.969.969,0,0,0,.884-.755c.18-.805.344-1.627.473-2.444a.972.972,0,1,0-1.92-.31c-.13.777-.282,1.56-.456,2.331a.977.977,0,0,0,.732,1.166.93.93,0,0,0,.276.023Z" transform="translate(-727.992 -135.12)" fill="#fc2433"/>
          <path id="Path_292" data-name="Path 292" d="M741.055,142.712a.974.974,0,0,1-.935-1.008c.051-1.357.034-2.731-.051-4.082-.017-.287-.039-.574-.062-.856a.977.977,0,0,1,.89-1.053,1.011,1.011,0,0,1,1.053.89c.023.3.045.6.068.9.09,1.419.107,2.86.056,4.279a.975.975,0,0,1-.906.935h-.1Zm-1.762-10.833a40.794,40.794,0,0,0-1.306-4.764.972.972,0,1,1,1.841-.625,41.181,41.181,0,0,1,1.368,4.994.975.975,0,0,1-.755,1.154.567.567,0,0,1-.141.017.978.978,0,0,1-1.014-.771Zm-3.193-9.336a39.386,39.386,0,0,0-2.438-4.3.972.972,0,0,1,1.627-1.064,42.3,42.3,0,0,1,2.556,4.5.974.974,0,0,1-.445,1.3.955.955,0,0,1-.366.1.969.969,0,0,1-.935-.546Zm-5.389-8.26a40.864,40.864,0,0,0-3.412-3.57.972.972,0,0,1,1.318-1.43,42.467,42.467,0,0,1,3.581,3.744.979.979,0,0,1-.113,1.374.948.948,0,0,1-.563.225.968.968,0,0,1-.805-.343Zm-7.241-6.695a41.329,41.329,0,0,0-4.178-2.635.974.974,0,0,1,.94-1.706,43.055,43.055,0,0,1,4.381,2.759.973.973,0,0,1,.22,1.357.983.983,0,0,1-.726.405,1,1,0,0,1-.631-.18Zm-8.649-4.735a39.325,39.325,0,0,0-4.69-1.532.974.974,0,0,1,.49-1.886,42.2,42.2,0,0,1,4.921,1.61.973.973,0,0,1-.3,1.875.926.926,0,0,1-.422-.068Zm-9.538-2.472a38.861,38.861,0,0,0-4.927-.332.974.974,0,0,1,.011-1.948,42.771,42.771,0,0,1,5.169.349.974.974,0,0,1-.062,1.937c-.062,0-.124,0-.186-.006Zm-15.9.1A.972.972,0,0,1,690.1,99.3a41.589,41.589,0,0,1,4.42-.828c.225-.034.451-.056.676-.084a.958.958,0,0,1,1.075.856.978.978,0,0,1-.856,1.081c-.214.023-.422.051-.642.079a40.463,40.463,0,0,0-4.223.794c-.056.011-.113.023-.169.028a.98.98,0,0,1-1.008-.743Z" transform="translate(-689.359 -98.1)" fill="#fc2433"/>
        </g>
        <g id="Group_73" data-name="Group 73" transform="translate(362.443 116.992)" opacity="0.47">
          <path id="Path_293" data-name="Path 293" d="M682.2,230.013a42.632,42.632,0,0,1-5.09-.051.974.974,0,0,1,.141-1.943,41.127,41.127,0,0,0,4.859.051.973.973,0,0,1,.107,1.943h-.011Zm3.941-1.357a.97.97,0,0,1,.794-1.12,41.271,41.271,0,0,0,4.735-1.109.973.973,0,1,1,.557,1.864,42.579,42.579,0,0,1-4.961,1.166.623.623,0,0,1-.107.011.969.969,0,0,1-1.019-.805Zm-14.088.636a42.276,42.276,0,0,1-4.932-1.278.974.974,0,1,1,.6-1.852,39.474,39.474,0,0,0,4.7,1.222.973.973,0,0,1-.13,1.926,1.249,1.249,0,0,1-.248-.017Zm23.677-3.266a.981.981,0,0,1,.5-1.284,40.126,40.126,0,0,0,4.324-2.218.983.983,0,0,1,1.334.338.973.973,0,0,1-.338,1.334,40.965,40.965,0,0,1-4.533,2.325.972.972,0,0,1-1.278-.5Zm-33.345.113a42.394,42.394,0,0,1-4.476-2.427.973.973,0,0,1,1.03-1.65,39.521,39.521,0,0,0,4.268,2.314.973.973,0,0,1-.355,1.852.935.935,0,0,1-.473-.09Zm-8.626-5.377a41.859,41.859,0,0,1-3.767-3.429.972.972,0,0,1,1.391-1.357,41.184,41.184,0,0,0,3.592,3.271.973.973,0,0,1-.552,1.729.958.958,0,0,1-.67-.214Zm-7.095-7.292a42.362,42.362,0,0,1-2.838-4.234.972.972,0,0,1,1.678-.98,39.4,39.4,0,0,0,2.7,4.037.971.971,0,0,1-.186,1.363.943.943,0,0,1-.529.2.97.97,0,0,1-.839-.383Z" transform="translate(-643.695 -207.775)" fill="#fc2433"/>
          <path id="Path_294" data-name="Path 294" d="M752.246,229.465a.983.983,0,0,0,.535-.2c.659-.507,1.306-1.042,1.92-1.577a.974.974,0,0,0-1.278-1.47c-.586.512-1.2,1.019-1.836,1.509a.973.973,0,0,0,.659,1.74Z" transform="translate(-690.672 -215.729)" fill="#fc2433"/>
        </g>
        <path id="Path_295" data-name="Path 295" d="M711.437,162.971a.49.49,0,0,0,0-.574l-3.474-4.887a26.11,26.11,0,0,0,1.92-8.243l5.27-2.855a.492.492,0,0,0,.253-.512l-1.177-7.095a.49.49,0,0,0-.405-.405l-5.906-1a26.165,26.165,0,0,0-4.476-7.179l1.706-5.749a.492.492,0,0,0-.186-.541l-5.85-4.184a.49.49,0,0,0-.574,0l-4.887,3.474a26.109,26.109,0,0,0-8.243-1.92l-2.855-5.27a.492.492,0,0,0-.512-.253l-7.095,1.177a.49.49,0,0,0-.405.405l-1,5.907a26.165,26.165,0,0,0-7.179,4.476l-5.749-1.706a.492.492,0,0,0-.541.186l-4.184,5.85a.49.49,0,0,0,0,.574l3.474,4.887a26.11,26.11,0,0,0-1.92,8.243l-5.27,2.855a.492.492,0,0,0-.253.512l1.177,7.095a.49.49,0,0,0,.405.405l5.906,1a26.166,26.166,0,0,0,4.476,7.179l-1.706,5.749a.492.492,0,0,0,.186.541l5.85,4.184a.49.49,0,0,0,.574,0l4.887-3.474a26.109,26.109,0,0,0,8.243,1.92l2.855,5.27a.492.492,0,0,0,.512.253l7.095-1.177a.49.49,0,0,0,.405-.405l1-5.907a26.166,26.166,0,0,0,7.179-4.476l5.749,1.706a.492.492,0,0,0,.541-.186Z" transform="translate(-284.841 -50.583)" fill="#fc2433"/>
        <path id="Path_296" data-name="Path 296" d="M701.983,173.778a7.326,7.326,0,1,1,1.092.011,7.869,7.869,0,0,1-1.092-.011ZM697.2,166a5.411,5.411,0,0,0,4.944,5.845h0A5.412,5.412,0,1,0,697.2,166Z" transform="translate(-303.771 -69.509)" fill="#fce6e8"/>
        <path id="Path_297" data-name="Path 297" d="M695.019,176.048a17.443,17.443,0,0,0,1.852-.214,18.434,18.434,0,0,0,3.6-.98c.051-.022.1-.039.158-.062a.972.972,0,0,0,.614-.963.917.917,0,0,0-.068-.3.972.972,0,0,0-1.261-.546,16.533,16.533,0,0,1-3.362.929h0c-.062.011-.13.022-.191.028a16.249,16.249,0,0,1-11.9-2.782.056.056,0,0,1-.028-.022.862.862,0,0,0-.09-.062,16.261,16.261,0,0,1-6.627-10.642,15.386,15.386,0,0,1-.191-1.672,16.381,16.381,0,0,1,32.511-3.682c.09.552.152,1.1.191,1.655a16.253,16.253,0,0,1-1.1,7.021.968.968,0,0,0,.546,1.261.97.97,0,0,0,1.261-.546,18.281,18.281,0,0,0,1.233-7.86,17.281,17.281,0,0,0-.214-1.852,18.325,18.325,0,0,0-36.368,4.122c.039.625.113,1.25.214,1.875a18.348,18.348,0,0,0,19.229,15.293Z" transform="translate(-295.169 -60.917)" fill="#fce6e8"/>
      </g>
    </g>
  </g>
</svg>
